<?xml version="1.0" encoding="UTF-8" standalone="no"?>
<svg
   width="488.06445"
   zoomAndPan="magnify"
   viewBox="0 0 366.04843 153.79919"
   height="205.06554"
   preserveAspectRatio="xMidYMid"
   version="1.2"
   id="svg80"
   xmlns="http://www.w3.org/2000/svg"
   xmlns:svg="http://www.w3.org/2000/svg">
  <defs
     id="defs19">
    <clipPath
       id="4b1423bfc0">
      <path
         d="m 121.04297,152.79297 h 187.11719 v 70.44531 H 121.04297 Z m 0,0"
         id="path1" />
    </clipPath>
    <clipPath
       id="4e8a2c2931">
      <path
         d="m 183.40625,219.00781 c 9.58594,2.55469 20.48437,4.23047 31.18359,4.23047 10.69532,0 20.98828,-1.4375 30.47266,-3.99219 0.20312,-0.082 0.40625,-0.082 0.60547,-0.16015 35.62109,-10.21875 61.85937,-37.19922 62.36328,-66.29297 H 121.04297 c 0.50781,29.25 26.33984,56.23437 62.36328,66.21484 z m 0,0"
         id="path2" />
    </clipPath>
    <clipPath
       id="73fb0526f2">
      <path
         d="m 168,145 h 23.78516 v 59 H 168 Z m 0,0"
         id="path3" />
    </clipPath>
    <clipPath
       id="83f97dcc96">
      <path
         d="m 163,114 h 9 v 94.0625 h -9 z m 0,0"
         id="path4" />
    </clipPath>
    <clipPath
       id="afaf48fce8">
      <path
         d="m 174,122 h 17.78516 v 34 H 174 Z m 0,0"
         id="path5" />
    </clipPath>
    <clipPath
       id="74a1b695b4">
      <path
         d="m 155,103.0625 h 9 V 198 h -9 z m 0,0"
         id="path6" />
    </clipPath>
    <clipPath
       id="1cb57da840">
      <path
         d="M 134.92578,122 H 152 v 34 h -17.07422 z m 0,0"
         id="path7" />
    </clipPath>
    <clipPath
       id="2efc96f2f6">
      <path
         d="m 117,92 h 91.76562 V 194.53906 H 117 Z m 0,0"
         id="path8" />
    </clipPath>
    <clipPath
       id="4664b69b82">
      <path
         d="M 106.01563,85.789062 H 124 V 103 h -17.98437 z m 0,0"
         id="path9" />
    </clipPath>
    <clipPath
       id="192be0956b">
      <path
         d="m 201,165.80469 h 4 V 170 h -4 z m 0,0"
         id="path10" />
    </clipPath>
    <clipPath
       id="d5429dccf7">
      <path
         d="m 196,165.80469 h 5 V 170 h -5 z m 0,0"
         id="path11" />
    </clipPath>
    <clipPath
       id="010245b83e">
      <path
         d="m 191,165.80469 h 5 V 170 h -5 z m 0,0"
         id="path12" />
    </clipPath>
    <clipPath
       id="f6c8ad169c">
      <path
         d="m 187,165.80469 h 5 V 170 h -5 z m 0,0"
         id="path13" />
    </clipPath>
    <clipPath
       id="64318b5fdd">
      <path
         d="m 268,190 h 5 v 4.30469 h -5 z m 0,0"
         id="path14" />
    </clipPath>
    <clipPath
       id="4046dd648a">
      <path
         d="m 263,190 h 5 v 4.30469 h -5 z m 0,0"
         id="path15" />
    </clipPath>
    <clipPath
       id="b7e385acda">
      <path
         d="m 258,190 h 5 v 4.30469 h -5 z m 0,0"
         id="path16" />
    </clipPath>
    <clipPath
       id="16536a51ed">
      <path
         d="m 254,190 h 5 v 4.30469 h -5 z m 0,0"
         id="path17" />
    </clipPath>
    <clipPath
       id="21eb1a57e2">
      <path
         d="M 173.80469,178 H 178 v 5 h -4.19531 z m 0,0"
         id="path18" />
    </clipPath>
    <clipPath
       id="64d3319095">
      <path
         d="m 281,177 h 4.55469 v 5 H 281 Z m 0,0"
         id="path19" />
    </clipPath>
  </defs>
  <g
     id="4bdf8a51d1"
     transform="translate(-3.3082664,-117.01524)">
    <g
       clip-rule="nonzero"
       clip-path="url(#4b1423bfc0)"
       id="g21"
       transform="matrix(1.0093866,0,0,1.0070327,-91.68709,46.006184)">
      <g
         clip-rule="nonzero"
         clip-path="url(#4e8a2c2931)"
         id="g20">
        <path
           style="fill:#022d5e;fill-opacity:1;fill-rule:nonzero;stroke:none"
           d="m 121.04297,152.79297 h 187.11719 v 70.44531 H 121.04297 Z m 0,0"
           id="path20" />
      </g>
    </g>
    <rect
       style="opacity:1;fill:#fd8804;fill-opacity:1;stroke:none;stroke-width:0.985456;stroke-linecap:square;stroke-linejoin:bevel;stroke-miterlimit:4.9;stroke-dasharray:none;stroke-dashoffset:0;stroke-opacity:1;paint-order:normal"
       id="rect85"
       width="30.140829"
       height="100.31011"
       x="58.89006"
       y="149.53897" />
    <g
       clip-rule="nonzero"
       clip-path="url(#73fb0526f2)"
       id="g22"
       transform="matrix(0.00303507,-1.0725494,1.2158584,0.00267735,-67.669726,383.63691)"
       style="opacity:0.706667">
      <path
         style="fill:#fd8804;fill-opacity:1;fill-rule:nonzero;stroke:none"
         d="m 170.91016,202.51562 c 0,-0.55078 -0.44532,-0.99609 -0.99219,-0.99609 -0.55078,0 -0.9961,0.44531 -0.9961,0.99609 0,0.54688 0.44532,0.99219 0.9961,0.99219 0.54687,0 0.99219,-0.44531 0.99219,-0.99219 z m 17.1875,-54.23828 c 0.55078,0 0.99218,-0.44531 0.99218,-0.99218 0,-0.54688 -0.4414,-0.99219 -0.99218,-0.99219 -0.54688,0 -0.99219,0.44531 -0.99219,0.99219 0,0.54687 0.44531,0.99218 0.99219,0.99218 z m -19.48047,54.23828 c 0,-0.61328 0.42578,-1.125 0.99218,-1.26171 v -27.80079 l 5.97657,-5.97265 v -8.31641 l 4.45703,-4.45703 h 5.14453 l 2.60547,-2.60937 v -3.55079 c -0.56641,-0.14062 -0.99219,-0.65234 -0.99219,-1.26171 0,-0.71485 0.58203,-1.29688 1.29688,-1.29688 0.71875,0 1.30078,0.58203 1.30078,1.29688 0,0.60937 -0.42578,1.12109 -0.9961,1.26171 v 3.80469 l -2.66015,2.66016 5.03125,5.03125 v 8.28515 c 0.48437,0.13282 0.83984,0.57813 0.83984,1.10157 0,0.63281 -0.51172,1.14843 -1.14453,1.14843 -0.62891,0 -1.14453,-0.51562 -1.14453,-1.14843 0,-0.52344 0.35547,-0.96875 0.83984,-1.10157 v -8.03515 l -4.97656,-4.97656 h -4.89063 l -4.10156,4.10156 v 8.3125 l -5.97656,5.97656 v 27.54688 c 0.57031,0.13671 0.99609,0.64843 0.99609,1.26171 0,0.71485 -0.58203,1.29688 -1.29687,1.29688 -0.71875,0 -1.30078,-0.58203 -1.30078,-1.29688"
         id="path21" />
    </g>
    <g
       clip-rule="nonzero"
       clip-path="url(#83f97dcc96)"
       id="g23"
       style="opacity:0.528889;fill:none;stroke:#ffffff;stroke-width:0.15;stroke-dasharray:none;stroke-opacity:1"
       transform="matrix(1.2158621,0,0,1.0725528,-124.4296,33.788365)">
      <path
         style="fill:#ffffff;fill-opacity:1;fill-rule:nonzero;stroke:none;stroke-width:0.15;stroke-dasharray:none;stroke-opacity:1"
         d="m 164.64844,116.625 c 0.55078,0 0.99609,-0.44922 0.99609,-0.99609 0,-0.54688 -0.44531,-0.99219 -0.99609,-0.99219 -0.54688,0 -0.99219,0.44531 -0.99219,0.99219 0,0.54687 0.44531,0.99609 0.99219,0.99609 z m 2.00781,39.82812 4.49609,-4.49218 v -11.01953 l -6.80468,-6.80469 v -17.24609 c -0.57032,-0.13672 -0.9961,-0.64844 -0.9961,-1.26172 0,-0.71485 0.58203,-1.29688 1.29688,-1.29688 0.71875,0 1.30078,0.58203 1.30078,1.29688 0,0.61328 -0.42578,1.125 -0.9961,1.26172 v 16.99218 l 6.8086,6.80469 v 11.52344 l -4.4961,4.49609 v 49.07813 c 0.48438,0.13281 0.83985,0.57421 0.83985,1.10156 0,0.63281 -0.51172,1.14453 -1.14453,1.14453 -0.63282,0 -1.14453,-0.51172 -1.14453,-1.14453 0,-0.52735 0.35546,-0.96875 0.83984,-1.10156 v -49.33204"
         id="path22" />
    </g>
    <rect
       style="opacity:1;fill:#fd8804;fill-opacity:1;stroke:none;stroke-width:0.331354;stroke-linecap:square;stroke-linejoin:bevel;stroke-miterlimit:4.9;stroke-dasharray:none;stroke-dashoffset:0;stroke-opacity:1;paint-order:normal"
       id="rect86"
       width="19.107136"
       height="17.889988"
       x="90.808891"
       y="-204.44594"
       transform="matrix(1,0,0.01941882,-0.99981144,0,0)" />
    <path
       style="opacity:1;fill:#fd8804;fill-opacity:1;fill-rule:nonzero;stroke:none;stroke-width:0.670649;stroke-dasharray:none;stroke-opacity:1"
       d="m 110.67207,203.5589 c 0.002,0.60836 -1.47512,2.68671 -3.26311,2.68975 -1.78799,0.004 -2.81573,0.33698 -2.81719,-0.27137 L 104.28421,186.139 c -0.002,-0.60838 1.36649,-0.79783 3.1545,-0.80084 1.788,-0.004 3.50074,-0.30185 3.29668,0.78995 z"
       id="path82" />
    <path
       style="opacity:1;fill:#fd8804;fill-opacity:1;fill-rule:nonzero;stroke:none;stroke-width:1.18223;stroke-dasharray:none;stroke-opacity:1"
       d="m 108.69803,189.92705 c 1.16098,0 2.09154,2.34097 2.09154,5.25254 0,2.91158 -0.93056,5.25255 -2.09154,5.25255 H 81.712462 c -1.160991,0 -2.094433,-2.34097 -2.094433,-5.25255 0,-2.91157 0.933442,-5.25254 2.094433,-5.25254 z m 0,0"
       id="path81" />
    <path
       style="fill:#ffffff;fill-opacity:1;fill-rule:nonzero;stroke:none;stroke-width:2.04702"
       d="m 72.229977,193.06316 c 1.280059,0 2.322406,-0.79718 2.322406,-1.7762 0,-0.97899 -1.042347,-1.77619 -2.322406,-1.77619 -1.280059,0 -2.322406,0.7972 -2.322406,1.77619 0,0.97902 1.042347,1.7762 2.322406,1.7762 z m -0.713176,0.47551 c -1.325776,-0.24473 -2.322406,-1.1608 -2.322406,-2.25171 0,-1.27969 1.362362,-2.32163 3.035582,-2.32163 1.673233,0 3.035582,1.04194 3.035582,2.32163 0,1.09091 -0.987474,2.00698 -2.322406,2.25171 v 14.55925 l -10.213078,7.81805 v -11.95786 c -1.133771,-0.23776 -1.974956,-1.03496 -1.974956,-1.972 0,-1.13285 1.206918,-2.04892 2.688133,-2.04892 1.472076,0 2.678991,0.91607 2.678991,2.04892 0,0.93704 -0.832041,1.73424 -1.974956,1.972 v 9.32155 l 7.369514,-5.63629 v -14.1047"
       id="path23" />
    <path
       style="fill:#ffffff;fill-opacity:1;fill-rule:nonzero;stroke:none;stroke-width:0.171294;stroke-dasharray:none;stroke-opacity:1"
       d="m 85.04137,165.59375 c -0.669672,0 -1.211108,0.47763 -1.211108,1.06418 0,0.58655 0.541436,1.06417 1.211108,1.06417 0.664932,0 1.206367,-0.47762 1.206367,-1.06417 0,-0.58655 -0.541435,-1.06418 -1.206367,-1.06418 z m -3.182141,-10.18925 3.547848,3.12967 v 6.77049 c 0.693419,0.15084 1.211121,0.69969 1.211121,1.35327 0,0.7667 -0.70768,1.39097 -1.576828,1.39097 -0.873901,0 -1.581569,-0.62427 -1.581569,-1.39097 0,-0.65358 0.51769,-1.20243 1.211109,-1.35327 v -6.50235 l -2.07076,-1.8225 v 11.995 l -2.46972,2.1828 c 0.299213,0.46925 0.227974,1.07256 -0.227974,1.47477 -0.541435,0.47763 -1.424845,0.47763 -1.96628,0 -0.546189,-0.48181 -0.546189,-1.26109 0,-1.73871 0.451195,-0.39801 1.13987,-0.46505 1.667057,-0.19691 l 2.255996,-1.99009 V 155.4045"
       id="path24" />
    <g
       style="fill:#022d5e;fill-opacity:1;stroke:#ffffff;stroke-width:0.69975;stroke-dasharray:none;stroke-opacity:1"
       id="g87"
       transform="matrix(3.297882,0,0,2.4715629,-655.64356,-110.24323)">
      <g
         clip-rule="nonzero"
         clip-path="url(#2efc96f2f6)"
         id="g35"
         style="stroke:none;stroke-width:0.99975;stroke-dasharray:none"
         transform="matrix(0.36867967,0,0,0.50438522,161.16039,48.105433)">
        <path
           style="fill:#fd8804;fill-opacity:1;fill-rule:nonzero;stroke:none;stroke-width:0.99975;stroke-dasharray:none"
           d="m 173.45643,156.56669 c 0.005,-1.55469 0.46257,-2.45858 2.01593,-2.51385 3.05487,-0.1087 3.47686,1.83168 3.47686,3.38637 v 34.0686 c 0,1.55469 -1.2461,2.80469 -2.80078,2.80469 h -27.29688 c -1.55469,0 -2.80078,-1.25 -2.80078,-2.80469 V 119.4375 h -20.03125 c -1.55469,0 -2.80469,-1.25 -2.80469,-2.80469 0,-1.55468 1.25,-2.80078 2.80469,-2.80078 h 22.83203 c 1.55469,0 2.80469,1.2461 2.80469,2.80078 v 72.04688 h 21.6875 z M 120.28516,97.800781 c -1.55469,0 -2.80469,-1.25 -2.80469,-2.804687 0,-1.550782 1.25,-2.800782 2.80469,-2.800782 h 85.34765 c 1.55469,0 2.80469,1.25 2.80469,2.800782 v 21.636716 c 0,1.55469 -1.25,2.80469 -2.80469,2.80469 h -26.68359 l -0.0563,23.39736 c -0.003,1.31172 -1.82718,0.96295 -3.38186,0.96295 -1.55469,0 -2.04968,-1.1371 -2.05459,-2.22326 l -0.11268,-24.91439 c -0.007,-1.55468 1.25,-2.80469 2.80469,-2.80469 h 26.67968 V 97.800781 Z"
           id="path35" />
      </g>
      <g
         transform="matrix(0.96243811,0,0,0.94275725,213.68383,139.04199)"
         id="g86"
         style="fill:#022d5e;fill-opacity:1;stroke:#ffffff;stroke-width:0.69975;stroke-dasharray:none;stroke-opacity:1">
        <path
           style="fill:#022d5e;fill-opacity:1;stroke:#ffffff;stroke-width:0.797205;stroke-dasharray:none;stroke-opacity:1"
           d="m 21.947506,-14.057927 c 0.124469,0 0.233381,0.06109 0.326734,0.1833 0.101132,0.1222 0.155587,0.274949 0.155587,0.448067 v 3.1772 c 0,0.162934 -0.05446,0.3156829 -0.155587,0.4480669 -0.09335,0.1222 -0.202265,0.1833 -0.326734,0.1833 H 13.623575 V 6.4920441 c 0,0.1629334 -0.05446,0.3156828 -0.155587,0.4480668 -0.09335,0.1222 -0.202264,0.1833 -0.326734,0.1833 H 10.71409 c -0.13614,0 -0.248941,-0.0611 -0.342293,-0.1833 -0.09335,-0.132384 -0.140029,-0.2851334 -0.140029,-0.4480668 V -9.6179931 H 1.8767202 c -0.1361393,0 -0.2567188,-0.06109 -0.3578512,-0.1833 C 1.425517,-9.9336771 1.3788403,-10.086426 1.3788403,-10.24936 v -3.1772 c 0,-0.173118 0.046676,-0.325867 0.1400287,-0.448067 0.1011324,-0.1222 0.2217119,-0.1833 0.3578512,-0.1833 z m 0,0"
           id="path86" />
      </g>
    </g>
    <rect
       style="opacity:1;fill:#fd8804;fill-opacity:1;stroke:none;stroke-width:0.801809;stroke-linecap:square;stroke-linejoin:bevel;stroke-miterlimit:4.9;stroke-dasharray:none;stroke-dashoffset:0;stroke-opacity:1;paint-order:normal"
       id="rect83"
       width="73.934998"
       height="27.07164"
       x="52.908913"
       y="126.57643" />
    <path
       style="fill:#ffffff;fill-opacity:1;fill-rule:nonzero;stroke:#ffffff;stroke-width:0.171294;stroke-dasharray:none;stroke-opacity:1"
       d="m 57.835735,121.35562 c 0.664918,0 1.206366,-0.47761 1.206366,-1.06417 0,-0.58655 -0.541448,-1.06417 -1.206366,-1.06417 -0.664931,0 -1.206367,0.47762 -1.206367,1.06417 0,0.58656 0.541436,1.06417 1.206367,1.06417 z m 8.31156,9.33457 2.954159,2.60178 c 0.527199,-0.26814 1.215863,-0.20111 1.667069,0.19691 0.546189,0.48181 0.546189,1.2569 0,1.7387 -0.541435,0.47763 -1.424844,0.47763 -1.966283,0 -0.451195,-0.4022 -0.527186,-1.00552 -0.227974,-1.47475 l -2.730936,-2.40906 h -3.999056 l -3.638078,3.20928 v 3.76651 l -4.720974,4.16033 v 12.64439 c 0.588939,0.14663 1.025884,0.62006 1.025884,1.18567 0,0.67873 -0.626923,1.22758 -1.391591,1.22758 -0.769422,0 -1.396345,-0.54885 -1.396345,-1.22758 0,-0.56561 0.436944,-1.03904 1.025884,-1.18567 v -12.91672 l 4.71622,-4.16033 v -16.4067 c -0.693419,-0.14664 -1.206367,-0.69549 -1.206367,-1.34908 0,-0.7667 0.707681,-1.39096 1.576828,-1.39096 0.869147,0 1.576815,0.62426 1.576815,1.39096 0,0.65359 -0.51769,1.20244 -1.206354,1.34908 v 11.98661 l 3.32937,-2.93695 h 4.611729"
       id="path25" />
    <path
       style="fill:#ffffff;fill-opacity:1;fill-rule:nonzero;stroke:none;stroke-width:2.04702"
       d="m 68.398929,259.81047 c 0,-0.94406 0.832039,-1.74125 1.965807,-1.979 v -34.30721 l 13.696686,-10.47537 v -4.67825 c -1.133767,-0.24476 -1.965819,-1.03495 -1.965819,-1.979 0,-1.13284 1.197783,-2.04892 2.678995,-2.04892 1.481224,0 2.678994,0.91608 2.678994,2.04892 0,0.94405 -0.832038,1.73424 -1.965818,1.979 v 5.1258 L 71.7911,223.9718 v 33.85967 c 1.133767,0.23775 1.965806,1.03494 1.965806,1.979 0,1.12583 -1.197771,2.04891 -2.678982,2.04891 -1.481224,0 -2.678995,-0.92308 -2.678995,-2.04891"
       id="path26" />
    <g
       clip-rule="nonzero"
       clip-path="url(#afaf48fce8)"
       id="g27"
       style="opacity:1;fill:#ffffff;fill-opacity:1;stroke:none;stroke-width:0.32475;stroke-dasharray:none;stroke-opacity:1"
       transform="matrix(0.02112862,-1.0723908,1.2156785,0.01863826,-60.077978,391.51537)">
      <path
         style="fill:#ffffff;fill-opacity:1;fill-rule:nonzero;stroke:none;stroke-width:0.32475;stroke-dasharray:none;stroke-opacity:1"
         d="m 176.07422,153.30469 c -0.54688,0 -0.99219,0.44531 -0.99219,0.99609 0,0.54688 0.44531,0.99219 0.99219,0.99219 0.54687,0 0.99219,-0.44531 0.99219,-0.99219 0,-0.55078 -0.44532,-0.99609 -0.99219,-0.99609 z m 7.70312,-4.75 c 0,0.63281 -0.51172,1.14843 -1.14453,1.14843 -0.63281,0 -1.14453,-0.51562 -1.14453,-1.14843 0,-0.52344 0.35547,-0.96875 0.83984,-1.10157 v -3.58593 l -3.17187,-3.17188 v -5.48828 l -2.77734,2.77734 v 15.05469 c 0.57031,0.13672 0.99218,0.64844 0.99218,1.26172 0,0.71484 -0.58203,1.29688 -1.29687,1.29688 -0.71485,0 -1.29688,-0.58204 -1.29688,-1.29688 0,-0.61328 0.42578,-1.125 0.99219,-1.26172 v -15.30469 l 3.56641,-3.5664 h 5.97265 l 5.02735,-5.02735 v -4.67578 c -0.48438,-0.13281 -0.83985,-0.57812 -0.83985,-1.10546 0,-0.62891 0.51172,-1.14454 1.14453,-1.14454 0.63282,0 1.14454,0.51563 1.14454,1.14454 0,0.52734 -0.35547,0.97265 -0.83985,1.10546 v 4.92969 l -5.38281,5.38281 h -5.79688 v 5.66407 l 3.17188,3.17187 v 3.83984 c 0.48437,0.13282 0.83984,0.57813 0.83984,1.10157"
         id="path27" />
    </g>
    <path
       style="opacity:1;fill:#fd8804;fill-opacity:1;fill-rule:nonzero;stroke:none;stroke-width:0.670649;stroke-dasharray:none;stroke-opacity:1"
       d="m 91.70522,187.90571 c -0.689602,0.008 -1.307516,-1.04148 -1.32833,-2.61863 -0.02128,-1.57714 0.515222,-2.85097 1.204822,-2.85817 l 16.029248,-0.16706 c 0.68962,-0.007 2.90771,1.25511 2.39571,3.17408 0.0213,1.57715 -1.63098,2.51836 -2.32065,2.51635 z"
       id="path36" />
    <g
       clip-rule="nonzero"
       clip-path="url(#74a1b695b4)"
       id="g28"
       transform="matrix(1.2158621,0,0,1.0725528,-124.62336,35.668436)"
       style="fill:none;stroke:#ffffff;stroke-width:0.15;stroke-dasharray:none;stroke-opacity:1">
      <path
         style="fill:#ffffff;fill-opacity:1;fill-rule:nonzero;stroke:#ffffff;stroke-width:0.15;stroke-dasharray:none;stroke-opacity:1"
         d="m 159.90625,194.77734 c -0.55078,0 -0.99609,0.44532 -0.99609,0.9961 0,0.54687 0.44531,0.99218 0.99609,0.99218 0.54687,0 0.99219,-0.44531 0.99219,-0.99218 0,-0.55078 -0.44532,-0.9961 -0.99219,-0.9961 z m 3.45312,-90.35546 c 0,0.52734 -0.35546,0.96875 -0.83984,1.10156 v 28.61328 l -6.80469,6.80469 v 11.01953 l 4.49219,4.49218 v 38.0586 c 0.57031,0.13672 0.99609,0.64844 0.99609,1.26172 0,0.71484 -0.58203,1.29687 -1.29687,1.29687 -0.71484,0 -1.29688,-0.58203 -1.29688,-1.29687 0,-0.61328 0.42188,-1.125 0.99219,-1.26172 v -37.80469 l -4.49609,-4.49609 V 140.6875 l 6.80469,-6.80469 v -28.35937 c -0.48438,-0.13281 -0.83985,-0.57422 -0.83985,-1.10156 0,-0.63282 0.51172,-1.14454 1.14453,-1.14454 0.63282,0 1.14453,0.51172 1.14453,1.14454"
         id="path28" />
    </g>
    <path
       style="opacity:1;fill:#ffffff;fill-opacity:1;fill-rule:nonzero;stroke:none;stroke-width:1.14197"
       d="m 58.224606,217.28868 c 0.664925,0 1.206363,-0.47762 1.206363,-1.06418 0,-0.58655 -0.541438,-1.06417 -1.206363,-1.06417 -0.664924,0 -1.206364,0.47762 -1.206364,1.06417 0,0.58656 0.54144,1.06418 1.206364,1.06418 z m 3.17739,5.346 c 0,-0.67872 0.622179,-1.22757 1.391592,-1.22757 0.769413,0 1.391593,0.54885 1.391593,1.22757 0,0.56142 -0.432202,1.03903 -1.021134,1.18149 v 7.16431 l -5.309899,-4.68403 v -8.72288 c -0.693421,-0.14662 -1.206362,-0.69547 -1.206362,-1.34907 0,-0.7667 0.707669,-1.39096 1.57682,-1.39096 0.869152,0 1.576821,0.62426 1.576821,1.39096 0,0.6536 -0.512941,1.20245 -1.206363,1.34907 v 8.45055 l 3.828066,3.37687 v -5.58482 c -0.588933,-0.14246 -1.021134,-0.62007 -1.021134,-1.18149"
       id="path29" />
    <g
       clip-rule="nonzero"
       clip-path="url(#1cb57da840)"
       id="g30"
       transform="matrix(1.2158621,0,0,1.0725528,-124.4296,33.788365)">
      <path
         style="fill:#fd8804;fill-opacity:1;fill-rule:nonzero;stroke:none"
         d="m 135.23047,123.51172 c 0,0.55078 0.44531,0.99219 0.99609,0.99219 0.54688,0 0.99219,-0.44141 0.99219,-0.99219 0,-0.54688 -0.44531,-0.99219 -0.99219,-0.99219 -0.55078,0 -0.99609,0.44531 -0.99609,0.99219 z m 2.29297,0 c 0,0.61328 -0.42578,1.125 -0.9961,1.26172 v 4.36718 l 5.02735,5.02735 h 5.97265 l 3.56641,3.5664 v 15.61329 c 0.48437,0.13281 0.83984,0.57812 0.83984,1.10156 0,0.63281 -0.51172,1.14844 -1.14453,1.14844 -0.63281,0 -1.14453,-0.51563 -1.14453,-1.14844 0,-0.52344 0.35547,-0.96875 0.83984,-1.10156 v -15.36329 l -2.77734,-2.77734 v 5.48828 l -3.17187,3.17188 v 3.58593 c 0.48437,0.13282 0.83984,0.57813 0.83984,1.10157 0,0.63281 -0.51172,1.14843 -1.14453,1.14843 -0.63281,0 -1.14453,-0.51562 -1.14453,-1.14843 0,-0.52344 0.35547,-0.96875 0.83984,-1.10157 v -3.83984 l 3.17188,-3.17187 v -5.66407 h -5.79297 l -5.38282,-5.38281 v -4.62109 c -0.57031,-0.13672 -0.99218,-0.64844 -0.99218,-1.26172 0,-0.71484 0.57812,-1.29688 1.29687,-1.29688 0.71485,0 1.29688,0.58204 1.29688,1.29688"
         id="path30" />
    </g>
    <path
       style="fill:#ffffff;fill-opacity:1;fill-rule:nonzero;stroke:none;stroke-width:0.171294;stroke-dasharray:none;stroke-opacity:1"
       d="m 62.381807,149.86449 c -0.66493,0 -1.206367,0.47762 -1.206367,1.06417 0,0.58656 0.541437,1.06418 1.206367,1.06418 0.664918,0 1.206366,-0.47762 1.206366,-1.06418 0,-0.58655 -0.541448,-1.06417 -1.206366,-1.06417 z m 7.105197,5.29992 c 0.541435,0.47761 0.541435,1.2569 0,1.73871 -0.546192,0.47762 -1.424847,0.47762 -1.971037,0 -0.451195,-0.4022 -0.527186,-1.00552 -0.223221,-1.47476 l -2.474473,-2.18282 v -11.99498 l -2.066005,1.82249 v 6.50235 c 0.688664,0.15083 1.206354,0.69968 1.206354,1.35326 0,0.76672 -0.707668,1.39097 -1.576815,1.39097 -0.869159,0 -1.576828,-0.62425 -1.576828,-1.39097 0,-0.65358 0.512948,-1.20243 1.206367,-1.35326 v -6.77048 l 3.547849,-3.12967 v 13.30216 l 2.255996,1.99009 c 0.531939,-0.26814 1.215865,-0.20111 1.671813,0.19691"
       id="path32" />
    <path
       style="fill:#fd8804;fill-opacity:1;fill-rule:nonzero;stroke:none;stroke-width:1.14197"
       d="m 31.011154,199.87428 v -3.07102 c -0.58894,-0.14663 -1.021141,-0.62007 -1.021141,-1.18567 0,-0.67872 0.626934,-1.22757 1.391602,-1.22757 0.769409,0 1.39159,0.54885 1.39159,1.22757 0,0.5656 -0.432202,1.03904 -1.021141,1.18567 v 2.80289 l 7.114702,6.2761 v 19.77101 c 0.588927,0.14245 1.02113,0.62007 1.02113,1.18149 0,0.67871 -0.622181,1.23176 -1.39159,1.23176 -0.769411,0 -1.391592,-0.55305 -1.391592,-1.23176 0,-0.56142 0.432202,-1.03904 1.02113,-1.18149 v -19.50287 l -7.11469,-6.27611"
       id="path33" />
    <path
       style="fill:#ffffff;fill-opacity:1;fill-rule:nonzero;stroke:none;stroke-width:1.24222"
       d="m 119.04723,120.92863 c -3.1e-4,-0.64454 -0.5853,-1.16876 -1.30645,-1.168 -0.71604,1.8e-4 -1.29807,0.5262 -1.29684,1.17072 3e-4,0.64456 0.58532,1.16877 1.30135,1.168 0.72115,-2.1e-4 1.30318,-0.52618 1.30194,-1.17072 z m 27.70318,4.11437 c -0.69048,2e-5 -1.26923,-0.41766 -1.44423,-0.98833 l -5.05827,0.005 -3.41054,3.07892 0.0121,6.05859 -5.8255,5.26366 -10.88883,0.0114 -7.80651,7.04742 -36.804104,0.0386 c -0.172786,0.57105 -0.755025,0.99062 -1.445489,0.99134 -0.823455,7.1e-4 -1.499717,-0.60153 -1.501152,-1.34734 -0.0011,-0.74582 0.672494,-1.34963 1.495936,-1.35048 0.690463,-3e-5 1.274344,0.41761 1.449332,0.98828 l 36.471647,-0.0383 7.81162,-7.0474 10.8837,-0.0114 5.36089,-4.8442 -0.0109,-5.75935 -6.52726,-5.863 -10.11651,0.0107 c -0.17772,0.66774 -0.84676,1.17026 -1.64974,1.1711 -0.93596,0.001 -1.69938,-0.68418 -1.70099,-1.52668 -0.002,-0.84249 0.7591,-1.52925 1.69509,-1.53023 0.80296,-7.1e-4 1.47394,0.49565 1.65422,1.16761 l 10.44386,-0.011 6.59898,5.92279 3.47692,-3.13883 5.39073,-0.005 c 0.17278,-0.57107 0.7499,-0.99062 1.44038,-0.99135 0.82855,-9.2e-4 1.4997,0.60153 1.50115,1.34736 9.8e-4,0.74579 -0.6674,1.3496 -1.49594,1.35047"
       id="path34" />
    <path
       style="fill:#fd8804;fill-opacity:1;fill-rule:nonzero;stroke:none;stroke-width:1.14197"
       d="m 23.586504,150.72168 c -0.650668,-0.57399 -1.548316,-0.93011 -2.574198,-0.93011 -0.987889,0 -1.885535,0.35612 -2.569457,0.93011 -0.650682,0.57398 -1.054384,1.36583 -1.054384,2.2708 0,0.87562 0.403702,1.66749 1.054384,2.2666 0.650667,0.57399 1.548313,0.93011 2.569457,0.93011 0.992629,0 1.92353,-0.35612 2.574198,-0.93011 0.650682,-0.57398 1.054383,-1.36583 1.054383,-2.2666 0,-0.82118 -0.34196,-1.58789 -0.930888,-2.13254 z m -2.574198,-6.94227 c 2.882917,0 5.485629,1.03904 7.375904,2.70653 0.06176,0.0545 0.156738,0.13826 0.21848,0.19272 1.766805,1.63815 2.849676,3.85448 2.849676,6.28448 0,2.54313 -1.177866,4.83906 -3.068156,6.47722 -1.890275,1.66748 -4.492987,2.70651 -7.342664,2.70651 -2.882918,0 -5.485629,-1.03903 -7.342664,-2.70651 -1.890289,-1.66749 -3.068155,-3.96342 -3.068155,-6.50235 0,-2.54313 1.177866,-4.83906 3.068155,-6.50654 1.828536,-1.61302 4.431247,-2.65206 7.309424,-2.65206 z m 0,0"
       id="path39" />
    <g
       clip-rule="nonzero"
       clip-path="url(#4664b69b82)"
       id="g40"
       transform="matrix(1.2158621,0,0,1.0725528,-125.59212,26.951742)">
      <path
         style="fill:#fd8804;fill-opacity:1;fill-rule:nonzero;stroke:none"
         d="m 116.64063,92.246094 c -0.53516,-0.535156 -1.27344,-0.867188 -2.11329,-0.867188 -0.8164,0 -1.55468,0.332032 -2.11718,0.867188 -0.53516,0.535156 -0.86719,1.273437 -0.86719,2.113281 0,0.816406 0.33203,1.554687 0.86719,2.117187 0.53515,0.535157 1.27343,0.867188 2.11718,0.867188 0.8125,0 1.57813,-0.332031 2.11329,-0.867188 0.53515,-0.535156 0.86718,-1.273437 0.86718,-2.117187 0,-0.761719 -0.28125,-1.476563 -0.76562,-1.984375 z m -2.08985,-6.449219 c 2.3711,0 4.51172,0.96875 6.06641,2.523437 0.0508,0.05078 0.125,0.128907 0.17578,0.179688 1.45312,1.527344 2.34766,3.59375 2.34766,5.859375 0,2.371094 -0.96875,4.511719 -2.52344,6.042965 -1.55469,1.55469 -3.69531,2.51954 -6.03906,2.51954 -2.3711,0 -4.51172,-0.96485 -6.04297,-2.51954 -1.55469,-1.554684 -2.51953,-3.695309 -2.51953,-6.066402 0,-2.371094 0.96484,-4.511719 2.51953,-6.066407 1.5039,-1.527343 3.64453,-2.472656 6.01562,-2.472656 z m 0,0"
         id="path40" />
    </g>
    <g
       style="fill:#fd8804;fill-opacity:1;stroke:#ffffff;stroke-width:0.69975;stroke-dasharray:none;stroke-opacity:1"
       id="g42"
       transform="matrix(2.1642929,0,0,1.7722967,-276.41657,-57.607082)">
      <g
         transform="translate(186.01321,141.32325)"
         id="g41"
         style="fill:#fd8804;fill-opacity:1;stroke:#ffffff;stroke-width:0.69975;stroke-dasharray:none;stroke-opacity:1">
        <path
           style="fill:#fd8804;fill-opacity:1;stroke:#ffffff;stroke-width:0.69975;stroke-dasharray:none;stroke-opacity:1"
           d="m 0.96875,-15.765625 c 0,-0.132813 0.046875,-0.25 0.140625,-0.34375 C 1.210938,-16.203125 1.332031,-16.25 1.46875,-16.25 h 2.171875 c 0.132813,0 0.25,0.04687 0.34375,0.140625 0.09375,0.09375 0.140625,0.210937 0.140625,0.34375 V -5 c 0,0.210938 0.078125,0.390625 0.234375,0.546875 L 5.59375,-3.3125 c 0.0625,0.0625 0.171875,0.09375 0.328125,0.09375 H 13.75 c 0.132812,0 0.242188,-0.03125 0.328125,-0.09375 L 15.3125,-4.453125 C 15.46875,-4.585938 15.546875,-4.769531 15.546875,-5 v -10.765625 c 0,-0.132813 0.04687,-0.25 0.140625,-0.34375 0.09375,-0.09375 0.207031,-0.140625 0.34375,-0.140625 h 2.171875 c 0.132813,0 0.25,0.04687 0.34375,0.140625 0.101563,0.09375 0.15625,0.210937 0.15625,0.34375 V -3.9375 c 0,0.34375 -0.121094,0.625 -0.359375,0.84375 l -2.859375,2.703125 c -0.136719,0.105469 -0.28125,0.199219 -0.4375,0.28125 C 14.898438,-0.0351562 14.71875,0 14.5,0 H 5.171875 C 4.953125,0 4.769531,-0.0351562 4.625,-0.109375 4.488281,-0.191406 4.34375,-0.285156 4.1875,-0.390625 L 1.328125,-3.09375 C 1.085938,-3.332031 0.96875,-3.613281 0.96875,-3.9375 Z m 0,0"
           id="path41" />
      </g>
    </g>
    <path
       style="fill:#ffffff;fill-opacity:1;fill-rule:nonzero;stroke:none;stroke-width:1.14197"
       d="m 55.679464,153.6587 c 0,0.58655 0.541436,1.06418 1.211121,1.06418 0.664918,0 1.206353,-0.47763 1.206353,-1.06418 0,-0.58655 -0.541435,-1.06417 -1.206353,-1.06417 -0.669685,0 -1.211121,0.47762 -1.211121,1.06417 z m 2.787935,0 c 0,0.65358 -0.517689,1.20243 -1.211108,1.34907 v 17.06029 l 4.720962,4.16034 v 12.91672 c 0.588927,0.14664 1.02113,0.62006 1.02113,1.18567 0,0.67873 -0.622181,1.22758 -1.391592,1.22758 -0.769409,0 -1.39159,-0.54885 -1.39159,-1.22758 0,-0.56561 0.432203,-1.03903 1.02113,-1.18567 v -12.6444 l -4.716207,-4.16032 v -3.76651 l -3.642845,-3.20928 h -3.999044 l -2.730936,2.40906 c 0.299212,0.46924 0.227975,1.07255 -0.227974,1.47476 -0.541435,0.47762 -1.424844,0.47762 -1.96628,0 -0.54619,-0.48181 -0.54619,-1.2569 0,-1.73872 0.451195,-0.39801 1.139872,-0.46504 1.671811,-0.19691 l 2.949414,-2.60177 h 4.611729 l 3.334125,2.93695 v -12.64021 c -0.693419,-0.14664 -1.211121,-0.69549 -1.211121,-1.34907 0,-0.7667 0.70768,-1.39097 1.581582,-1.39097 0.869147,0 1.576814,0.62427 1.576814,1.39097"
       id="path31" />
    <g
       style="fill:#fd8804;fill-opacity:1;stroke:#ffffff;stroke-width:0.69975;stroke-dasharray:none;stroke-opacity:1"
       id="g46"
       transform="matrix(2.1642929,0,0,1.7722967,-304.02979,-55.981268)">
      <g
         transform="translate(239.9474,141.32325)"
         id="g45"
         style="fill:#fd8804;fill-opacity:1;stroke:#ffffff;stroke-width:0.69975;stroke-dasharray:none;stroke-opacity:1">
        <path
           style="fill:#fd8804;fill-opacity:1;stroke:#ffffff;stroke-width:0.69975;stroke-dasharray:none;stroke-opacity:1"
           d="m 0.96875,-15.765625 c 0,-0.132813 0.046875,-0.25 0.140625,-0.34375 C 1.210938,-16.203125 1.332031,-16.25 1.46875,-16.25 h 2.171875 c 0.132813,0 0.25,0.04687 0.34375,0.140625 0.09375,0.09375 0.140625,0.210937 0.140625,0.34375 V -5 c 0,0.210938 0.078125,0.390625 0.234375,0.546875 L 5.59375,-3.3125 c 0.0625,0.0625 0.171875,0.09375 0.328125,0.09375 H 13.75 c 0.132812,0 0.242188,-0.03125 0.328125,-0.09375 L 15.3125,-4.453125 C 15.46875,-4.585938 15.546875,-4.769531 15.546875,-5 v -10.765625 c 0,-0.132813 0.04687,-0.25 0.140625,-0.34375 0.09375,-0.09375 0.207031,-0.140625 0.34375,-0.140625 h 2.171875 c 0.132813,0 0.25,0.04687 0.34375,0.140625 0.101563,0.09375 0.15625,0.210937 0.15625,0.34375 V -3.9375 c 0,0.34375 -0.121094,0.625 -0.359375,0.84375 l -2.859375,2.703125 c -0.136719,0.105469 -0.28125,0.199219 -0.4375,0.28125 C 14.898438,-0.0351562 14.71875,0 14.5,0 H 5.171875 C 4.953125,0 4.769531,-0.0351562 4.625,-0.109375 4.488281,-0.191406 4.34375,-0.285156 4.1875,-0.390625 L 1.328125,-3.09375 C 1.085938,-3.332031 0.96875,-3.613281 0.96875,-3.9375 Z m 0,0"
           id="path44" />
      </g>
    </g>
    <g
       style="fill:#fd8804;fill-opacity:1;stroke:#ffffff;stroke-width:0.69975;stroke-dasharray:none;stroke-opacity:1"
       id="g44"
       transform="matrix(2.1642929,0,0,1.7722967,-289.59476,-67.088267)">
      <g
         transform="translate(211.27365,141.32325)"
         id="g43"
         style="stroke:#ffffff;stroke-width:0.69975;stroke-dasharray:none;stroke-opacity:1">
        <path
           style="stroke:#ffffff;stroke-width:0.69975;stroke-dasharray:none;stroke-opacity:1"
           d="m 21.625,-16.25 c 0.125,0 0.234375,0.04687 0.328125,0.140625 0.101563,0.09375 0.15625,0.210937 0.15625,0.34375 v 2.4375 c 0,0.125 -0.05469,0.242187 -0.15625,0.34375 -0.09375,0.09375 -0.203125,0.140625 -0.328125,0.140625 h -8.359375 v 12.359375 c 0,0.125 -0.05469,0.242187 -0.15625,0.34375 C 13.015625,-0.046875 12.90625,0 12.78125,0 h -2.4375 C 10.207031,0 10.09375,-0.046875 10,-0.140625 9.90625,-0.242188 9.859375,-0.359375 9.859375,-0.484375 V -12.84375 H 1.46875 c -0.136719,0 -0.257812,-0.04687 -0.359375,-0.140625 -0.09375,-0.101563 -0.140625,-0.21875 -0.140625,-0.34375 v -2.4375 c 0,-0.132813 0.046875,-0.25 0.140625,-0.34375 C 1.210938,-16.203125 1.332031,-16.25 1.46875,-16.25 Z m 0,0"
           id="path42" />
      </g>
    </g>
    <g
       style="fill:#fd8804;fill-opacity:1;stroke:#ffffff;stroke-width:0.69975;stroke-dasharray:none;stroke-opacity:1"
       id="g48"
       transform="matrix(2.1642929,0,0,1.7722967,-309.96512,-62.820158)">
      <g
         transform="translate(265.20784,141.32325)"
         id="g47"
         style="stroke:#ffffff;stroke-width:0.69975;stroke-dasharray:none;stroke-opacity:1">
        <path
           style="stroke:#ffffff;stroke-width:0.69975;stroke-dasharray:none;stroke-opacity:1"
           d="m 18.796875,-13.03125 c 0.257813,0.25 0.390625,0.574219 0.390625,0.96875 v 4.328125 c 0,0.148437 -0.04297,0.296875 -0.125,0.453125 -0.07422,0.148438 -0.164062,0.277344 -0.265625,0.390625 L 16.125,-4.234375 18.34375,-0.6875 c 0.101562,0.15625 0.109375,0.3125 0.01563,0.46875 C 18.273438,-0.0703125 18.140625,0 17.953125,0 h -2.4375 c -0.199219,0 -0.367187,-0.0976562 -0.5,-0.296875 L 13,-3.578125 H 4.1875 v 3.09375 c 0,0.125 -0.046875,0.242187 -0.140625,0.34375 C 3.953125,-0.046875 3.835938,0 3.703125,0 H 1.46875 C 1.332031,0 1.210938,-0.046875 1.109375,-0.140625 1.015625,-0.242188 0.96875,-0.359375 0.96875,-0.484375 v -15.28125 c 0,-0.132813 0.046875,-0.25 0.140625,-0.34375 C 1.210938,-16.203125 1.332031,-16.25 1.46875,-16.25 h 13.546875 c 0.332031,0 0.617187,0.117188 0.859375,0.34375 z M 4.1875,-13.109375 v 6.3125 h 9.828125 c 0.144531,0 0.304687,-0.085937 0.484375,-0.265625 l 1.046875,-0.96875 c 0.144531,-0.15625 0.21875,-0.335938 0.21875,-0.546875 V -11.3125 c 0,-0.132812 -0.03125,-0.242188 -0.09375,-0.328125 l -0.15625,-0.1875 L 14.53125,-12.875 c -0.148438,-0.15625 -0.328125,-0.234375 -0.546875,-0.234375 z m 0,0"
           id="path46" />
      </g>
    </g>
    <g
       style="fill:#fd8804;fill-opacity:1;stroke:#ffffff;stroke-width:0.69975;stroke-dasharray:none;stroke-opacity:1"
       id="g50"
       transform="matrix(2.1642929,0,0,1.7722967,-316.9423,-52.972994)">
      <g
         transform="translate(290.95589,141.32325)"
         id="g49"
         style="fill:#fd8804;fill-opacity:1;stroke:#ffffff;stroke-width:0.69975;stroke-dasharray:none;stroke-opacity:1">
        <path
           style="fill:#fd8804;fill-opacity:1;stroke:#ffffff;stroke-width:0.69975;stroke-dasharray:none;stroke-opacity:1"
           d="M 4.625,-11.796875 C 4.46875,-11.648438 4.390625,-11.46875 4.390625,-11.25 v 1.390625 h 11.90625 c 0.125,0 0.234375,0.054687 0.328125,0.15625 0.101562,0.09375 0.15625,0.210937 0.15625,0.34375 V -7.125 c 0,0.136719 -0.05469,0.25 -0.15625,0.34375 -0.09375,0.09375 -0.203125,0.140625 -0.328125,0.140625 H 4.390625 V -4.9375 c 0,0.105469 0.03125,0.210938 0.09375,0.3125 L 5.625,-3.375 c 0.15625,0.148438 0.335938,0.21875 0.546875,0.21875 h 11.71875 c 0.125,0 0.234375,0.054688 0.328125,0.15625 0.101562,0.09375 0.15625,0.203125 0.15625,0.328125 v 2.1875 c 0,0.125 -0.05469,0.242187 -0.15625,0.34375 C 18.125,-0.046875 18.015625,0 17.890625,0 H 4.96875 C 4.644531,0 4.363281,-0.117188 4.125,-0.359375 L 1.359375,-3.0625 C 1.097656,-3.320312 0.96875,-3.644531 0.96875,-4.03125 v -8.234375 c 0,-0.164063 0.039062,-0.320313 0.125,-0.46875 0.09375,-0.15625 0.179688,-0.28125 0.265625,-0.375 L 4.125,-15.875 c 0.257812,-0.25 0.578125,-0.375 0.953125,-0.375 h 12.8125 c 0.125,0 0.234375,0.04687 0.328125,0.140625 0.101562,0.09375 0.15625,0.210937 0.15625,0.34375 v 2.234375 c 0,0.136719 -0.05469,0.257812 -0.15625,0.359375 -0.09375,0.09375 -0.203125,0.140625 -0.328125,0.140625 h -11.75 c -0.148437,0 -0.308594,0.08594 -0.484375,0.25 z m 0,0"
           id="path48" />
      </g>
    </g>
    <path
       style="fill:#022d5e;fill-opacity:1;fill-rule:nonzero;stroke:none;stroke-width:1.14197"
       d="m 36.983651,178.51212 h -0.717177 c -0.280218,0 -0.503439,-0.19272 -0.503439,-0.43991 0,-0.25138 0.223221,-0.44411 0.503439,-0.44411 h 0.717177 c 0.280208,0 0.503439,0.19273 0.503439,0.44411 0,0.24719 -0.223231,0.43991 -0.503439,0.43991 z m 0,0"
       id="path50" />
    <path
       style="fill:#022d5e;fill-opacity:1;fill-rule:nonzero;stroke:none;stroke-width:2.28392"
       d="m 44.751904,178.99686 h -1.719302 c -0.56044,0 -1.00688,-0.38545 -1.00688,-0.87984 0,-0.50275 0.44644,-0.8882 1.00688,-0.8882 h 1.719302 c 0.560439,0 1.006879,0.38545 1.006879,0.8882 0,0.49439 -0.44644,0.87984 -1.006879,0.87984 z m 0,0"
       id="path51" />
    <path
       style="fill:#fd8804;fill-opacity:1;fill-rule:nonzero;stroke:none;stroke-width:2.17854"
       d="m 185.10088,152.90158 h -1.33599 c -0.52202,0 -0.93785,-0.3847 -0.93785,-0.8676 0,-0.48292 0.41583,-0.86761 0.93785,-0.86761 h 1.33599 c 0.52202,0 0.93785,0.38469 0.93785,0.86761 0,0.4829 -0.41583,0.8676 -0.93785,0.8676 z m 0,0"
       id="path53" />
    <path
       id="path54"
       style="opacity:1;fill:#fd8804;fill-opacity:1;fill-rule:nonzero;stroke:none;stroke-width:2.00281"
       d="m 202.38522,151.05174 c -0.51137,0 -0.91901,0.32418 -0.91901,0.74787 0,0.41665 0.40764,0.74156 0.91901,0.74156 h 158.28709 l 6.83922,5.57278 v 31.66439 l -6.89088,5.60733 h -9.45735 c -0.5114,0 -0.91903,0.33123 -0.91903,0.74786 0,0.41666 0.40763,0.74785 0.91903,0.74785 h 9.83851 v 0.022 c 0.25137,0 0.48565,-0.0851 0.65898,-0.22624 l 7.42698,-6.04411 c 0.18187,-0.14827 0.26893,-0.33254 0.26893,-0.53732 v -32.27869 c 0,-0.20479 -0.10432,-0.39614 -0.26893,-0.53733 l -7.37533,-6.00954 c -0.18201,-0.14834 -0.40763,-0.21839 -0.65899,-0.21839 h -81.21579 c -0.81061,0.41648 -1.71211,0.70543 -2.63594,0.84527 -0.56756,0.0864 -1.14934,0.0637 -1.72405,0.0958 -0.86941,-0.13187 -2.32564,-0.18131 -2.9512,-0.9411 z" />
    <path
       style="fill:#fd8804;fill-opacity:1;fill-rule:nonzero;stroke:none;stroke-width:2.17854"
       d="m 195.54376,152.85902 h -1.61026 c -0.52202,0 -0.93788,-0.38468 -0.93788,-0.8676 0,-0.48291 0.41586,-0.8676 0.93788,-0.8676 h 1.61026 c 0.52202,0 0.93787,0.38469 0.93787,0.8676 0,0.48292 -0.41585,0.8676 -0.93787,0.8676 z m 0,0"
       id="path55" />
    <path
       style="fill:#fd8804;fill-opacity:1;fill-rule:nonzero;stroke:none;stroke-width:2.17854"
       d="m 172.90442,153.00081 h -1.336 c -0.52201,0 -0.93784,-0.38471 -0.93784,-0.8676 0,-0.48291 0.41583,-0.86762 0.93784,-0.86762 h 1.336 c 0.52203,0 0.93789,0.38471 0.93789,0.86762 0,0.48289 -0.41586,0.8676 -0.93789,0.8676 z m 0,0"
       id="path56" />
    <path
       style="fill:#022d5e;fill-opacity:1;fill-rule:nonzero;stroke:none;stroke-width:1.14197"
       d="m 40.583989,178.51212 h -0.721918 c -0.28022,0 -0.50344,-0.19272 -0.50344,-0.43991 0,-0.25138 0.22322,-0.44411 0.50344,-0.44411 h 0.721918 c 0.28022,0 0.503453,0.19273 0.503453,0.44411 0,0.24719 -0.223233,0.43991 -0.503453,0.43991 z m 0,0"
       id="path57" />
    <path
       style="fill:#022d5e;fill-opacity:1;fill-rule:nonzero;stroke:none;stroke-width:1.14197"
       d="m 33.291187,178.46953 h -5.718358 c -0.280218,0 -0.503439,-0.19273 -0.503439,-0.4399 0,-0.25139 0.223221,-0.44412 0.503439,-0.44412 h 5.718358 c 0.280208,0 0.50344,0.19273 0.50344,0.44412 0,0.24717 -0.223232,0.4399 -0.50344,0.4399 z m 0,0"
       id="path58" />
    <path
       style="opacity:1;fill:#022d5e;fill-opacity:1;fill-rule:nonzero;stroke:none;stroke-width:1.14197"
       d="m 27.379069,204.85061 c -0.128236,0 -0.256473,-0.0419 -0.360964,-0.13408 l -4.05129,-3.57377 c -0.09495,-0.0838 -0.151982,-0.19691 -0.151982,-0.31841 v -19.15094 c 0,-0.12149 0.05229,-0.23043 0.151982,-0.31842 l 4.05129,-3.57796 c 0.194732,-0.17177 0.517702,-0.17177 0.712421,0 0.194734,0.17177 0.194734,0.45668 0,0.62845 l -3.904059,3.4439 v 18.78642 l 3.904059,3.44391 c 0.194734,0.16759 0.194734,0.45667 0,0.62426 -0.0997,0.0921 -0.227974,0.13407 -0.35621,0.13407 z m 0,0"
       id="path59" />
    <g
       clip-rule="nonzero"
       clip-path="url(#192be0956b)"
       id="g60"
       transform="matrix(2.3406888,0,0,1.7901839,-336.49451,-104.31716)">
      <path
         style="fill:#fd8804;fill-opacity:1;fill-rule:nonzero;stroke:none"
         d="m 201.45703,165.78906 h 3.08984 c 0.1211,0 0.22266,0.043 0.3086,0.12891 0.0859,0.0859 0.1289,0.1875 0.1289,0.30859 v 3.08594 c 0,0.12109 -0.043,0.22266 -0.1289,0.30859 -0.0859,0.0859 -0.1875,0.12891 -0.3086,0.12891 h -3.08984 c -0.11719,0 -0.22266,-0.043 -0.30859,-0.12891 -0.0859,-0.0859 -0.12891,-0.1875 -0.12891,-0.30859 v -3.08594 c 0,-0.12109 0.043,-0.22265 0.12891,-0.30859 0.0859,-0.0859 0.1914,-0.12891 0.30859,-0.12891 z m 0,0"
         id="path60" />
    </g>
    <g
       clip-rule="nonzero"
       clip-path="url(#d5429dccf7)"
       id="g61"
       transform="matrix(1.2158621,0,0,1.0725528,-126.2534,19.591259)"
       style="opacity:1;fill:#fd8804;fill-opacity:1">
      <path
         style="fill:#fd8804;fill-opacity:1;fill-rule:nonzero;stroke:none"
         d="m 196.78906,165.78906 h 3.08594 c 0.12109,0 0.22266,0.043 0.30859,0.12891 0.0859,0.0859 0.12891,0.1875 0.12891,0.30859 v 3.08594 c 0,0.12109 -0.043,0.22266 -0.12891,0.30859 -0.0859,0.0859 -0.1875,0.12891 -0.30859,0.12891 h -3.08594 c -0.12109,0 -0.22656,-0.043 -0.3125,-0.12891 -0.082,-0.0859 -0.125,-0.1875 -0.125,-0.30859 v -3.08594 c 0,-0.12109 0.043,-0.22265 0.125,-0.30859 0.0859,-0.0859 0.19141,-0.12891 0.3125,-0.12891 z m 0,0"
         id="path61" />
    </g>
    <g
       clip-rule="nonzero"
       clip-path="url(#010245b83e)"
       id="g62"
       transform="matrix(1.2158621,0,0,1.0725528,-117.2355,-17.884398)"
       style="opacity:1;fill:#ffffff;fill-opacity:1;stroke:none;stroke-width:0.69975;stroke-linecap:square;stroke-linejoin:bevel;stroke-miterlimit:4.9;stroke-dasharray:none;stroke-dashoffset:0;stroke-opacity:1;paint-order:normal">
      <path
         style="fill:#ffffff;fill-opacity:1;fill-rule:nonzero;stroke:none;stroke-width:0.69975;stroke-linecap:square;stroke-linejoin:bevel;stroke-miterlimit:4.9;stroke-dasharray:none;stroke-dashoffset:0;stroke-opacity:1;paint-order:normal"
         d="m 192.23437,165.78906 h 3.08594 c 0.1211,0 0.22656,0.043 0.3086,0.12891 0.0859,0.0859 0.1289,0.1875 0.1289,0.30859 v 3.08594 c 0,0.12109 -0.043,0.22266 -0.1289,0.30859 -0.082,0.0859 -0.1875,0.12891 -0.3086,0.12891 h -3.08594 c -0.12109,0 -0.22265,-0.043 -0.30859,-0.12891 -0.0859,-0.0859 -0.12891,-0.1875 -0.12891,-0.30859 v -3.08594 c 0,-0.12109 0.043,-0.22265 0.12891,-0.30859 0.0859,-0.0859 0.1875,-0.12891 0.30859,-0.12891 z m 0,0"
         id="path62" />
    </g>
    <g
       clip-rule="nonzero"
       clip-path="url(#f6c8ad169c)"
       id="g63"
       transform="matrix(2.3406888,0,0,1.7901839,-293.12153,-107.28772)">
      <path
         style="fill:#fd8804;fill-opacity:1;fill-rule:nonzero;stroke:none"
         d="m 187.68359,165.78906 h 3.08594 c 0.12109,0 0.22266,0.043 0.30859,0.12891 0.0859,0.0859 0.12891,0.1875 0.12891,0.30859 v 3.08594 c 0,0.12109 -0.043,0.22266 -0.12891,0.30859 -0.0859,0.0859 -0.1875,0.12891 -0.30859,0.12891 h -3.08594 c -0.12109,0 -0.22656,-0.043 -0.3125,-0.12891 -0.0859,-0.0859 -0.125,-0.1875 -0.125,-0.30859 v -3.08594 c 0,-0.12109 0.0391,-0.22265 0.125,-0.30859 0.0859,-0.0859 0.19141,-0.12891 0.3125,-0.12891 z m 0,0"
         id="path63" />
    </g>
    <g
       clip-rule="nonzero"
       clip-path="url(#64318b5fdd)"
       id="g64"
       transform="matrix(2.1810887,0,0,1.6897351,-338.34584,-66.517018)">
      <path
         style="fill:#fd8804;fill-opacity:1;fill-rule:nonzero;stroke:none"
         d="m 268.51172,190.32812 h 3.08594 c 0.12109,0 0.22265,0.043 0.30859,0.12891 0.0859,0.082 0.12891,0.1875 0.12891,0.30859 v 3.08594 c 0,0.1211 -0.043,0.22266 -0.12891,0.3086 -0.0859,0.0859 -0.1875,0.1289 -0.30859,0.1289 h -3.08594 c -0.1211,0 -0.22656,-0.043 -0.3086,-0.1289 -0.0859,-0.0859 -0.1289,-0.1875 -0.1289,-0.3086 v -3.08594 c 0,-0.12109 0.043,-0.22656 0.1289,-0.30859 0.082,-0.0859 0.1875,-0.12891 0.3086,-0.12891 z m 0,0"
         id="path64" />
    </g>
    <g
       clip-rule="nonzero"
       clip-path="url(#4046dd648a)"
       id="g65"
       transform="matrix(2.1810887,0,0,1.6897351,-338.34584,-69.051617)">
      <path
         style="fill:#fd8804;fill-opacity:1;fill-rule:nonzero;stroke:none"
         d="m 263.83984,190.32812 h 3.08594 c 0.12109,0 0.22266,0.043 0.30859,0.12891 0.0859,0.082 0.12891,0.1875 0.12891,0.30859 v 3.08594 c 0,0.1211 -0.043,0.22266 -0.12891,0.3086 -0.0859,0.0859 -0.1875,0.1289 -0.30859,0.1289 h -3.08594 c -0.12109,0 -0.22265,-0.043 -0.30859,-0.1289 -0.0859,-0.0859 -0.12891,-0.1875 -0.12891,-0.3086 v -3.08594 c 0,-0.12109 0.043,-0.22656 0.12891,-0.30859 0.0859,-0.0859 0.1875,-0.12891 0.30859,-0.12891 z m 0,0"
         id="path65" />
    </g>
    <g
       clip-rule="nonzero"
       clip-path="url(#b7e385acda)"
       id="g66"
       transform="matrix(2.1810887,0,0,1.6897351,-338.34584,-63.982412)">
      <path
         style="fill:#fd8804;fill-opacity:1;fill-rule:nonzero;stroke:none"
         d="m 259.28516,190.32812 h 3.08984 c 0.11719,0 0.22266,0.043 0.30859,0.12891 0.0859,0.082 0.12891,0.1875 0.12891,0.30859 v 3.08594 c 0,0.1211 -0.043,0.22266 -0.12891,0.3086 -0.0859,0.0859 -0.1914,0.1289 -0.30859,0.1289 h -3.08984 c -0.1211,0 -0.22266,-0.043 -0.3086,-0.1289 -0.0859,-0.0859 -0.1289,-0.1875 -0.1289,-0.3086 v -3.08594 c 0,-0.12109 0.043,-0.22656 0.1289,-0.30859 0.0859,-0.0859 0.1875,-0.12891 0.3086,-0.12891 z m 0,0"
         id="path66" />
    </g>
    <g
       clip-rule="nonzero"
       clip-path="url(#16536a51ed)"
       id="g67"
       transform="matrix(2.1810887,0,0,1.6897351,-338.34584,-66.517018)"
       style="opacity:0.728889;stroke-width:0.99975;stroke-dasharray:none">
      <path
         style="fill:#fd8804;fill-opacity:1;fill-rule:nonzero;stroke:none;stroke-width:0.99975;stroke-dasharray:none"
         d="m 254.73437,190.32812 h 3.08594 c 0.1211,0 0.22266,0.043 0.3086,0.12891 0.0859,0.082 0.1289,0.1875 0.1289,0.30859 v 3.08594 c 0,0.1211 -0.043,0.22266 -0.1289,0.3086 -0.0859,0.0859 -0.1875,0.1289 -0.3086,0.1289 h -3.08594 c -0.12109,0 -0.22265,-0.043 -0.30859,-0.1289 -0.0859,-0.0859 -0.12891,-0.1875 -0.12891,-0.3086 v -3.08594 c 0,-0.12109 0.043,-0.22656 0.12891,-0.30859 0.0859,-0.0859 0.1875,-0.12891 0.30859,-0.12891 z m 0,0"
         id="path67" />
    </g>
    <path
       style="fill:#fd8804;fill-opacity:1;fill-rule:nonzero;stroke:none;stroke-width:1.91975"
       d="m 117.00284,255.10108 c -0.23004,0 -0.46007,-0.0727 -0.63899,-0.21122 l -7.39526,-5.72926 c -0.16183,-0.12538 -0.26411,-0.30362 -0.26411,-0.49503 v -2.89104 c 0,-0.38943 0.39191,-0.69964 0.89459,-0.69964 0.5112,0 0.9031,0.31021 0.9031,0.69964 v 2.60061 l 7.12264,5.51144 c 0.34929,0.27063 0.34929,0.71945 0,0.99007 -0.17885,0.13857 -0.40896,0.21123 -0.64752,0.21123 z m 0,0"
       id="path68" />
    <path
       style="fill:#fd8804;fill-opacity:1;fill-rule:nonzero;stroke:none;stroke-width:1.91975"
       d="m 155.49866,230.71133 c -0.5027,0 -0.90314,-0.31023 -0.90314,-0.69966 v -3.34647 c 0,-0.19141 0.0938,-0.36303 0.27264,-0.50164 l 7.44638,-5.75566 c 0.34931,-0.27063 0.92867,-0.27063 1.27797,0 0.34079,0.27062 0.34079,0.71946 0,0.99009 l -7.17372,5.55103 v 3.06265 c 0,0.38943 -0.40043,0.69966 -0.90311,0.69966 z m 0,0"
       id="path69" />
    <g
       clip-rule="nonzero"
       clip-path="url(#21eb1a57e2)"
       id="g71"
       transform="matrix(1.2158621,0,0,1.0725528,-187.87777,-74.083497)">
      <path
         style="fill:#fd8804;fill-opacity:1;fill-rule:nonzero;stroke:none"
         d="m 177.8125,178.63672 v 3.08594 c 0,0.12109 -0.043,0.22656 -0.12891,0.30859 -0.082,0.0859 -0.1875,0.12891 -0.30859,0.12891 h -3.08594 c -0.12109,0 -0.22265,-0.043 -0.30859,-0.12891 -0.0859,-0.082 -0.12891,-0.1875 -0.12891,-0.30859 v -3.08594 c 0,-0.1211 0.043,-0.22266 0.12891,-0.3086 0.0859,-0.0859 0.1875,-0.1289 0.30859,-0.1289 h 3.08594 c 0.12109,0 0.22656,0.043 0.30859,0.1289 0.0859,0.0859 0.12891,0.1875 0.12891,0.3086 z m 0,0"
         id="path70" />
      <path
         style="fill:#ffffff;fill-opacity:1;fill-rule:nonzero;stroke:none"
         d="m 177.38281,182.19531 h -3.09375 c -0.2539,0 -0.46875,-0.20703 -0.46875,-0.46484 v -3.09375 c 0,-0.25391 0.20703,-0.46485 0.46875,-0.46485 h 3.09375 c 0.25391,0 0.46485,0.20704 0.46485,0.46485 v 3.09375 c 0,0.2539 -0.20704,0.46484 -0.46485,0.46484 z m -3.09375,-3.96094 c -0.22265,0 -0.40625,0.1836 -0.40625,0.41016 v 3.08984 c 0,0.22657 0.1836,0.41016 0.40625,0.41016 h 3.09375 c 0.22266,0 0.40625,-0.18359 0.40625,-0.41016 v -3.08984 c 0,-0.22656 -0.18359,-0.41016 -0.40625,-0.41016 z m 0,0"
         id="path71" />
    </g>
    <path
       style="fill:#fd8804;fill-opacity:1;fill-rule:nonzero;stroke:none;stroke-width:1.74077;stroke-opacity:1"
       d="m 254.15448,221.40182 c -0.41328,0 -0.74259,-0.31021 -0.74259,-0.69965 v -2.59401 l -5.84949,-5.53125 c -0.28718,-0.26401 -0.28718,-0.71945 0,-0.98347 0.28737,-0.27062 0.76361,-0.27062 1.05083,0 l 6.07364,5.72266 c 0.13982,0.13196 0.22418,0.31021 0.22418,0.50164 v 2.88443 c 0,0.38944 -0.32926,0.69965 -0.74258,0.69965 z m 0,0"
       id="path72" />
    <path
       style="opacity:0.688889;fill:#fd8804;fill-opacity:1;fill-rule:nonzero;stroke:none;stroke-width:1.91975"
       d="m 191.03834,252.11683 c -0.23002,0 -0.46858,-0.0727 -0.64751,-0.21123 -0.34931,-0.27061 -0.34931,-0.71945 0,-0.99006 l 7.17375,-5.55766 v -3.05604 c 0,-0.38943 0.40044,-0.69966 0.90308,-0.69966 0.50269,0 0.90314,0.31023 0.90314,0.69966 v 3.34647 c 0,0.19141 -0.0939,0.36302 -0.27263,0.50163 l -7.42934,5.76228 c -0.17886,0.14513 -0.40896,0.2112 -0.64752,0.2112 z m 0,0"
       id="path73" />
    <g
       clip-rule="nonzero"
       clip-path="url(#64d3319095)"
       id="g74"
       transform="matrix(2.1810887,0,0,1.6897351,-347.48771,-59.628709)"
       style="fill:#0e2c52;fill-opacity:1">
      <path
         style="fill:#0e2c52;fill-opacity:1;fill-rule:nonzero;stroke:none"
         d="m 281.17578,181.5 v -3.08594 c 0,-0.12109 0.043,-0.22656 0.12891,-0.3125 0.0859,-0.082 0.1875,-0.125 0.30859,-0.125 h 3.08594 c 0.12109,0 0.22656,0.043 0.30859,0.125 0.0859,0.0859 0.12891,0.19141 0.12891,0.3125 V 181.5 c 0,0.12109 -0.043,0.22266 -0.12891,0.30859 -0.082,0.0859 -0.1875,0.12891 -0.30859,0.12891 h -3.08594 c -0.12109,0 -0.22266,-0.043 -0.30859,-0.12891 -0.0859,-0.0859 -0.12891,-0.1875 -0.12891,-0.30859 z m 0,0"
         id="path74" />
    </g>
    <g
       style="fill:none;fill-opacity:1;stroke:#ffffff;stroke-width:0.99975;stroke-dasharray:none;stroke-opacity:1"
       id="g76"
       transform="matrix(2.1810887,0,0,1.6897351,-293.68478,-67.233117)">
      <g
         transform="translate(186.00149,187.55975)"
         id="g75"
         style="fill:none;stroke:#ffffff;stroke-width:0.99975;stroke-dasharray:none;stroke-opacity:1">
        <path
           style="fill:none;stroke:#ffffff;stroke-width:0.99975;stroke-dasharray:none;stroke-opacity:1"
           d="M 4.625,-11.796875 C 4.46875,-11.648438 4.390625,-11.46875 4.390625,-11.25 v 1.390625 h 11.90625 c 0.125,0 0.234375,0.054687 0.328125,0.15625 0.101562,0.09375 0.15625,0.210937 0.15625,0.34375 V -7.125 c 0,0.136719 -0.05469,0.25 -0.15625,0.34375 -0.09375,0.09375 -0.203125,0.140625 -0.328125,0.140625 H 4.390625 V -4.9375 c 0,0.105469 0.03125,0.210938 0.09375,0.3125 L 5.625,-3.375 c 0.15625,0.148438 0.335938,0.21875 0.546875,0.21875 h 11.71875 c 0.125,0 0.234375,0.054688 0.328125,0.15625 0.101562,0.09375 0.15625,0.203125 0.15625,0.328125 v 2.1875 c 0,0.125 -0.05469,0.242187 -0.15625,0.34375 C 18.125,-0.046875 18.015625,0 17.890625,0 H 4.96875 C 4.644531,0 4.363281,-0.117188 4.125,-0.359375 L 1.359375,-3.0625 C 1.097656,-3.320312 0.96875,-3.644531 0.96875,-4.03125 v -8.234375 c 0,-0.164063 0.039062,-0.320313 0.125,-0.46875 0.09375,-0.15625 0.179688,-0.28125 0.265625,-0.375 L 4.125,-15.875 c 0.257812,-0.25 0.578125,-0.375 0.953125,-0.375 h 12.8125 c 0.125,0 0.234375,0.04687 0.328125,0.140625 0.101562,0.09375 0.15625,0.210937 0.15625,0.34375 v 2.234375 c 0,0.136719 -0.05469,0.257812 -0.15625,0.359375 -0.09375,0.09375 -0.203125,0.140625 -0.328125,0.140625 h -11.75 c -0.148437,0 -0.308594,0.08594 -0.484375,0.25 z m 0,0"
           id="path75" />
      </g>
    </g>
    <g
       style="fill:#022d5e;fill-opacity:1;stroke:#ffffff;stroke-width:0.99975;stroke-dasharray:none;stroke-opacity:1"
       id="g78"
       transform="matrix(2.1810887,0,0,1.6897351,-302.50689,-67.873747)">
      <g
         transform="translate(210.93685,187.55975)"
         id="g77"
         style="fill:#022d5e;fill-opacity:1;stroke:#ffffff;stroke-width:0.99975;stroke-dasharray:none;stroke-opacity:1">
        <path
           style="fill:#022d5e;fill-opacity:1;stroke:#ffffff;stroke-width:0.99975;stroke-dasharray:none;stroke-opacity:1"
           d="m 16.03125,-9.78125 c -0.136719,0 -0.25,-0.046875 -0.34375,-0.140625 -0.09375,-0.101563 -0.140625,-0.222656 -0.140625,-0.359375 v -1.125 c 0,-0.238281 -0.07813,-0.425781 -0.234375,-0.5625 L 14.28125,-12.9375 C 14.101562,-13.113281 13.925781,-13.203125 13.75,-13.203125 H 6.140625 c -0.148437,0 -0.308594,0.08984 -0.484375,0.265625 L 4.625,-11.96875 c -0.15625,0.15625 -0.234375,0.34375 -0.234375,0.5625 v 6.5625 c 0,0.21875 0.078125,0.402344 0.234375,0.546875 L 5.65625,-3.3125 c 0.175781,0.167969 0.335938,0.25 0.484375,0.25 H 13.75 c 0.175781,0 0.351562,-0.082031 0.53125,-0.25 l 1.03125,-0.984375 c 0.15625,-0.125 0.234375,-0.304687 0.234375,-0.546875 v -1.140625 c 0,-0.125 0.04687,-0.234375 0.140625,-0.328125 0.09375,-0.101562 0.207031,-0.15625 0.34375,-0.15625 h 2.171875 c 0.132813,0 0.25,0.054688 0.34375,0.15625 0.101563,0.09375 0.15625,0.203125 0.15625,0.328125 V -4 c 0,0.324219 -0.121094,0.605469 -0.359375,0.84375 l -2.859375,2.921875 C 15.222656,0.0234375 14.894531,0.15625 14.5,0.15625 H 5.234375 c -0.367187,0 -0.679687,-0.1328125 -0.9375,-0.390625 L 1.359375,-3.15625 C 1.273438,-3.257812 1.1875,-3.382812 1.09375,-3.53125 1.007812,-3.6875 0.96875,-3.84375 0.96875,-4 v -8.265625 c 0,-0.164063 0.039062,-0.320313 0.125,-0.46875 0.09375,-0.15625 0.179688,-0.28125 0.265625,-0.375 l 2.9375,-2.921875 c 0.257813,-0.257812 0.570313,-0.390625 0.9375,-0.390625 H 14.5 c 0.394531,0 0.722656,0.132813 0.984375,0.390625 l 2.859375,2.921875 c 0.238281,0.242187 0.359375,0.523437 0.359375,0.84375 v 1.984375 c 0,0.136719 -0.05469,0.257812 -0.15625,0.359375 -0.09375,0.09375 -0.210937,0.140625 -0.34375,0.140625 z m 0,0"
           id="path76" />
      </g>
    </g>
    <g
       style="fill:#0e2c52;fill-opacity:1;stroke:#ffffff;stroke-width:0.99975;stroke-dasharray:none;stroke-opacity:1"
       id="g80"
       transform="matrix(2.1810887,0,0,1.6897351,-306.03574,-69.610517)">
      <g
         transform="translate(236.19728,187.55975)"
         id="g79"
         style="fill:#0e2c52;fill-opacity:1;stroke:#ffffff;stroke-width:0.99975;stroke-dasharray:none;stroke-opacity:1">
        <path
           style="fill:#0e2c52;fill-opacity:1;stroke:#ffffff;stroke-width:0.99975;stroke-dasharray:none;stroke-opacity:1"
           d="m 18.203125,-16.25 c 0.132813,0 0.25,0.04687 0.34375,0.140625 0.101563,0.09375 0.15625,0.210937 0.15625,0.34375 v 15.28125 c 0,0.125 -0.05469,0.242187 -0.15625,0.34375 C 18.453125,-0.046875 18.335938,0 18.203125,0 h -2.4375 c -0.125,0 -0.242187,-0.046875 -0.34375,-0.140625 -0.09375,-0.101563 -0.140625,-0.21875 -0.140625,-0.34375 v -6.25 H 4.390625 v 6.25 c 0,0.125 -0.054687,0.242187 -0.15625,0.34375 C 4.140625,-0.046875 4.03125,0 3.90625,0 H 1.46875 C 1.332031,0 1.210938,-0.046875 1.109375,-0.140625 1.015625,-0.242188 0.96875,-0.359375 0.96875,-0.484375 v -15.28125 c 0,-0.132813 0.046875,-0.25 0.140625,-0.34375 C 1.210938,-16.203125 1.332031,-16.25 1.46875,-16.25 h 2.4375 c 0.125,0 0.234375,0.04687 0.328125,0.140625 0.101563,0.09375 0.15625,0.210937 0.15625,0.34375 v 5.8125 H 15.28125 v -5.8125 c 0,-0.132813 0.04687,-0.25 0.140625,-0.34375 0.101563,-0.09375 0.21875,-0.140625 0.34375,-0.140625 z m 0,0"
           id="path78" />
      </g>
    </g>
    <path
       style="fill:#fd8804;fill-opacity:1;fill-rule:nonzero;stroke:none;stroke-width:1.14197"
       d="m 44.291712,224.03711 c 0.664918,0 1.206366,-0.47762 1.206366,-1.06417 0,-0.58656 -0.541448,-1.06418 -1.206366,-1.06418 -0.664931,0 -1.206366,0.47762 -1.206366,1.06418 0,0.58655 0.541435,1.06417 1.206366,1.06417 z m 3.177387,5.34601 c 0,-0.67873 0.622182,-1.22757 1.391591,-1.22757 0.76941,0 1.391592,0.54884 1.391592,1.22757 0,0.56142 -0.432203,1.03904 -1.02113,1.18148 v 7.16432 l -5.309901,-4.68404 v -8.72287 c -0.693419,-0.14664 -1.206367,-0.69548 -1.206367,-1.34907 0,-0.76671 0.707669,-1.39097 1.576828,-1.39097 0.869147,0 1.576815,0.62426 1.576815,1.39097 0,0.65359 -0.512936,1.20243 -1.206354,1.34907 v 8.45054 l 3.828056,3.37686 v -5.58481 c -0.588927,-0.14244 -1.02113,-0.62006 -1.02113,-1.18148"
       id="path80" />
    <path
       style="fill:#022d5e;fill-opacity:1;fill-rule:nonzero;stroke:#ffffff;stroke-width:1.14197;stroke-opacity:1"
       d="m 55.856426,202.45756 c -0.650669,-0.57399 -1.548316,-0.93011 -2.574199,-0.93011 -0.987889,0 -1.885536,0.35612 -2.569458,0.93011 -0.65068,0.57399 -1.054384,1.36583 -1.054384,2.2708 0,0.87563 0.403704,1.66748 1.054384,2.2666 0.650669,0.57399 1.548316,0.93011 2.569458,0.93011 0.99263,0 1.92353,-0.35612 2.574199,-0.93011 0.650681,-0.57399 1.054383,-1.36583 1.054383,-2.2666 0,-0.82118 -0.341961,-1.58789 -0.930889,-2.13254 z m -2.574199,-6.94227 c 2.882918,0 5.485629,1.03903 7.375906,2.70652 0.06176,0.0545 0.156736,0.13827 0.218478,0.19273 1.766805,1.63815 2.849676,3.85449 2.849676,6.28448 0,2.54314 -1.177865,4.83906 -3.068154,6.47723 -1.890277,1.66747 -4.492988,2.70651 -7.342665,2.70651 -2.882919,0 -5.485629,-1.03904 -7.342664,-2.70651 -1.890288,-1.66749 -3.068155,-3.96343 -3.068155,-6.50236 0,-2.54313 1.177867,-4.83906 3.068155,-6.50654 1.828535,-1.61303 4.431246,-2.65206 7.309423,-2.65206 z m 0,0"
       id="path87" />
    <text
       xml:space="preserve"
       style="font-weight:bold;font-size:14.7448px;font-family:Noteworthy;-inkscape-font-specification:'Noteworthy, Bold';text-align:start;writing-mode:lr-tb;direction:ltr;text-anchor:start;opacity:1;fill:#ffffff;fill-opacity:1;stroke:#0e2c52;stroke-width:0.169507;stroke-linecap:square;stroke-linejoin:bevel;stroke-miterlimit:4.9;stroke-dasharray:none;stroke-dashoffset:0;stroke-opacity:1;paint-order:normal"
       x="149.53119"
       y="353.56891"
       id="text3380"
       transform="matrix(1.0973603,-0.32562666,0.36977571,0.80155185,0,0)"><tspan
         id="tspan3380"
         style="fill:#ffffff;fill-opacity:1;stroke:#0e2c52;stroke-width:0.169507;stroke-dasharray:none;stroke-opacity:1"
         x="149.53119"
         y="353.56891"> Code</tspan><tspan
         style="fill:#ffffff;fill-opacity:1;stroke:#0e2c52;stroke-width:0.169507;stroke-dasharray:none;stroke-opacity:1"
         x="149.53119"
         y="371.99991"
         id="tspan3381">   the </tspan><tspan
         style="fill:#ffffff;fill-opacity:1;stroke:#0e2c52;stroke-width:0.169507;stroke-dasharray:none;stroke-opacity:1"
         x="149.53119"
         y="390.43091"
         id="tspan3382">Future!</tspan></text>
  </g>
</svg>
