<?xml version="1.0" encoding="UTF-8" standalone="no"?>
<svg
   width="488.06445"
   zoomAndPan="magnify"
   viewBox="0 0 366.04843 153.79919"
   height="205.06554"
   preserveAspectRatio="xMidYMid"
   version="1.2"
   id="svg80"
   sodipodi:docname="logo13.svg"
   inkscape:export-filename="logo13.png"
   inkscape:export-xdpi="2000"
   inkscape:export-ydpi="2000"
   inkscape:version="1.4 (e7c3feb1, 2024-10-09)"
   xmlns:inkscape="http://www.inkscape.org/namespaces/inkscape"
   xmlns:sodipodi="http://sodipodi.sourceforge.net/DTD/sodipodi-0.dtd"
   xmlns:xlink="http://www.w3.org/1999/xlink"
   xmlns="http://www.w3.org/2000/svg"
   xmlns:svg="http://www.w3.org/2000/svg">
  <sodipodi:namedview
     id="namedview1"
     pagecolor="#ffffff"
     bordercolor="#000000"
     borderopacity="0.25"
     inkscape:showpageshadow="2"
     inkscape:pageopacity="0.0"
     inkscape:pagecheckerboard="0"
     inkscape:deskcolor="#d1d1d1"
     inkscape:zoom="1.5422573"
     inkscape:cx="266.8167"
     inkscape:cy="96.935838"
     inkscape:window-width="1440"
     inkscape:window-height="824"
     inkscape:window-x="0"
     inkscape:window-y="34"
     inkscape:window-maximized="0"
     inkscape:current-layer="4bdf8a51d1" />
  <defs
     id="defs19">
    <linearGradient
       id="linearGradient85"
       inkscape:collect="always">
      <stop
         style="stop-color:#fd8804;stop-opacity:1;"
         offset="0"
         id="stop85" />
      <stop
         style="stop-color:#fd8804;stop-opacity:0;"
         offset="1"
         id="stop86" />
    </linearGradient>
    <inkscape:perspective
       sodipodi:type="inkscape:persp3d"
       inkscape:vp_x="34.486133 : 71.875973 : 1"
       inkscape:vp_y="0 : 908.29259 : 0"
       inkscape:vp_z="329.09135 : 71.875973 : 1"
       inkscape:persp3d-origin="181.78875 : 48.593527 : 1"
       id="perspective1" />
    <clipPath
       id="4b1423bfc0">
      <path
         d="m 121.04297,152.79297 h 187.11719 v 70.44531 H 121.04297 Z m 0,0"
         id="path1" />
    </clipPath>
    <clipPath
       id="4e8a2c2931">
      <path
         d="m 183.40625,219.00781 c 9.58594,2.55469 20.48437,4.23047 31.18359,4.23047 10.69532,0 20.98828,-1.4375 30.47266,-3.99219 0.20312,-0.082 0.40625,-0.082 0.60547,-0.16015 35.62109,-10.21875 61.85937,-37.19922 62.36328,-66.29297 H 121.04297 c 0.50781,29.25 26.33984,56.23437 62.36328,66.21484 z m 0,0"
         id="path2" />
    </clipPath>
    <clipPath
       id="73fb0526f2">
      <path
         d="m 168,145 h 23.78516 v 59 H 168 Z m 0,0"
         id="path3" />
    </clipPath>
    <clipPath
       id="83f97dcc96">
      <path
         d="m 163,114 h 9 v 94.0625 h -9 z m 0,0"
         id="path4" />
    </clipPath>
    <clipPath
       id="afaf48fce8">
      <path
         d="m 174,122 h 17.78516 v 34 H 174 Z m 0,0"
         id="path5" />
    </clipPath>
    <clipPath
       id="74a1b695b4">
      <path
         d="m 155,103.0625 h 9 V 198 h -9 z m 0,0"
         id="path6" />
    </clipPath>
    <clipPath
       id="1cb57da840">
      <path
         d="M 134.92578,122 H 152 v 34 h -17.07422 z m 0,0"
         id="path7" />
    </clipPath>
    <clipPath
       id="2efc96f2f6">
      <path
         d="m 117,92 h 91.76562 V 194.53906 H 117 Z m 0,0"
         id="path8" />
    </clipPath>
    <clipPath
       id="4664b69b82">
      <path
         d="M 106.01563,85.789062 H 124 V 103 h -17.98437 z m 0,0"
         id="path9" />
    </clipPath>
    <clipPath
       id="192be0956b">
      <path
         d="m 201,165.80469 h 4 V 170 h -4 z m 0,0"
         id="path10" />
    </clipPath>
    <clipPath
       id="d5429dccf7">
      <path
         d="m 196,165.80469 h 5 V 170 h -5 z m 0,0"
         id="path11" />
    </clipPath>
    <clipPath
       id="010245b83e">
      <path
         d="m 191,165.80469 h 5 V 170 h -5 z m 0,0"
         id="path12" />
    </clipPath>
    <clipPath
       id="f6c8ad169c">
      <path
         d="m 187,165.80469 h 5 V 170 h -5 z m 0,0"
         id="path13" />
    </clipPath>
    <clipPath
       id="64318b5fdd">
      <path
         d="m 268,190 h 5 v 4.30469 h -5 z m 0,0"
         id="path14" />
    </clipPath>
    <clipPath
       id="4046dd648a">
      <path
         d="m 263,190 h 5 v 4.30469 h -5 z m 0,0"
         id="path15" />
    </clipPath>
    <clipPath
       id="b7e385acda">
      <path
         d="m 258,190 h 5 v 4.30469 h -5 z m 0,0"
         id="path16" />
    </clipPath>
    <clipPath
       id="16536a51ed">
      <path
         d="m 254,190 h 5 v 4.30469 h -5 z m 0,0"
         id="path17" />
    </clipPath>
    <clipPath
       id="21eb1a57e2">
      <path
         d="M 173.80469,178 H 178 v 5 h -4.19531 z m 0,0"
         id="path18" />
    </clipPath>
    <clipPath
       id="64d3319095">
      <path
         d="m 281,177 h 4.55469 v 5 H 281 Z m 0,0"
         id="path19" />
    </clipPath>
    <radialGradient
       inkscape:collect="always"
       xlink:href="#linearGradient85"
       id="radialGradient86"
       cx="96.46882"
       cy="175.08159"
       fx="96.46882"
       fy="175.08159"
       r="33.462444"
       gradientTransform="matrix(1,0,0,1.7563183,0,-132.4174)"
       gradientUnits="userSpaceOnUse" />
  </defs>
  <g
     id="4bdf8a51d1"
     transform="translate(-3.3082664,-117.01524)">
    <g
       clip-rule="nonzero"
       clip-path="url(#4b1423bfc0)"
       id="g21"
       transform="matrix(0.81238037,0,0,0.91468039,-38.660316,64.594117)">
      <g
         sodipodi:type="inkscape:box3d"
         id="g1"
         style="fill:#011d3e;fill-opacity:1;stroke-width:3.033;stroke-linecap:square;stroke-linejoin:bevel;stroke-miterlimit:4.9"
         inkscape:perspectiveID="#perspective1"
         inkscape:corner0="-0.35829108 : 0.0093868921 : 0 : 1"
         inkscape:corner7="-0.48369881 : -0.010383642 : 0.25 : 1" />
    </g>
    <g
       clip-rule="nonzero"
       clip-path="url(#192be0956b)"
       id="g60"
       transform="matrix(11.429466,-3.697969,2.1420869,9.4324679,-2450.0914,-597.0753)"
       style="opacity:0.73065;fill:#011d3e;fill-opacity:1"
       inkscape:transform-center-x="-1.5214895"
       inkscape:transform-center-y="20.719379">
      <path
         style="fill:#fd8804;fill-opacity:1;fill-rule:nonzero;stroke:none"
         d="m 201.45703,165.78906 h 3.08984 c 0.1211,0 0.22266,0.043 0.3086,0.12891 0.0859,0.0859 0.1289,0.1875 0.1289,0.30859 v 3.08594 c 0,0.12109 -0.043,0.22266 -0.1289,0.30859 -0.0859,0.0859 -0.1875,0.12891 -0.3086,0.12891 h -3.08984 c -0.11719,0 -0.22266,-0.043 -0.30859,-0.12891 -0.0859,-0.0859 -0.12891,-0.1875 -0.12891,-0.30859 v -3.08594 c 0,-0.12109 0.043,-0.22265 0.12891,-0.30859 0.0859,-0.0859 0.1914,-0.12891 0.30859,-0.12891 z m 0,0"
         id="path60" />
    </g>
    <g
       clip-rule="nonzero"
       clip-path="url(#4e8a2c2931)"
       id="g20"
       style="fill:#011d3e;fill-opacity:1"
       transform="matrix(0.81238037,0,0,0.91468039,-38.660318,64.594121)">
      <path
         style="fill:#011d3e;fill-opacity:1;fill-rule:nonzero;stroke:none"
         d="m 121.04297,152.79297 h 187.11719 v 70.44531 H 121.04297 Z m 0,0"
         id="path20" />
    </g>
    <g
       clip-rule="nonzero"
       clip-path="url(#83f97dcc96)"
       id="g23"
       style="opacity:0.515464;fill:none;stroke:#ffffff;stroke-width:0.15;stroke-dasharray:none;stroke-opacity:1"
       transform="matrix(0.8189359,0,0,0.83377917,-84.818141,74.606149)">
      <path
         style="fill:#ffffff;fill-opacity:1;fill-rule:nonzero;stroke:none;stroke-width:0.15;stroke-dasharray:none;stroke-opacity:1"
         d="m 164.64844,116.625 c 0.55078,0 0.99609,-0.44922 0.99609,-0.99609 0,-0.54688 -0.44531,-0.99219 -0.99609,-0.99219 -0.54688,0 -0.99219,0.44531 -0.99219,0.99219 0,0.54687 0.44531,0.99609 0.99219,0.99609 z m 2.00781,39.82812 4.49609,-4.49218 v -11.01953 l -6.80468,-6.80469 v -17.24609 c -0.57032,-0.13672 -0.9961,-0.64844 -0.9961,-1.26172 0,-0.71485 0.58203,-1.29688 1.29688,-1.29688 0.71875,0 1.30078,0.58203 1.30078,1.29688 0,0.61328 -0.42578,1.125 -0.9961,1.26172 v 16.99218 l 6.8086,6.80469 v 11.52344 l -4.4961,4.49609 v 49.07813 c 0.48438,0.13281 0.83985,0.57421 0.83985,1.10156 0,0.63281 -0.51172,1.14453 -1.14453,1.14453 -0.63282,0 -1.14453,-0.51172 -1.14453,-1.14453 0,-0.52735 0.35546,-0.96875 0.83984,-1.10156 v -49.33204"
         id="path22" />
    </g>
    <text
       xml:space="preserve"
       style="font-style:normal;font-variant:normal;font-weight:bold;font-stretch:normal;font-size:132.215px;font-family:Futura;-inkscape-font-specification:'Futura, Bold';font-variant-ligatures:normal;font-variant-caps:normal;font-variant-numeric:normal;font-variant-east-asian:normal;text-align:start;writing-mode:lr-tb;direction:ltr;text-anchor:start;opacity:1;fill:#fd8804;fill-opacity:1;stroke:#ffffff;stroke-width:1.73647;stroke-linecap:square;stroke-linejoin:bevel;stroke-miterlimit:4.9;stroke-dasharray:none;stroke-opacity:1"
       x="29.947996"
       y="227.11777"
       id="text85"
       transform="scale(0.88486329,1.1301181)"><tspan
         sodipodi:role="line"
         id="tspan85"
         style="font-style:normal;font-variant:normal;font-weight:bold;font-stretch:normal;font-size:132.215px;font-family:Futura;-inkscape-font-specification:'Futura, Bold';font-variant-ligatures:normal;font-variant-caps:normal;font-variant-numeric:normal;font-variant-east-asian:normal;fill:#fd8804;fill-opacity:1;stroke:#ffffff;stroke-width:1.73647;stroke-dasharray:none;stroke-opacity:1"
         x="29.947996"
         y="227.11777">F</tspan></text>
    <path
       style="opacity:0.515464;fill:#ffffff;fill-opacity:1;fill-rule:nonzero;stroke:none;stroke-width:0.880474"
       d="m 77.512322,193.80977 c 0.473973,0 0.859926,-0.39834 0.859926,-0.8875 0,-0.48915 -0.385953,-0.88749 -0.859926,-0.88749 -0.473973,0 -0.859927,0.39834 -0.859927,0.88749 0,0.48916 0.385954,0.8875 0.859927,0.8875 z m -0.26407,0.23757 c -0.490905,-0.12227 -0.859933,-0.57999 -0.859933,-1.12507 0,-0.6394 0.50445,-1.16002 1.124003,-1.16002 0.619552,0 1.123996,0.52062 1.123996,1.16002 0,0.54508 -0.365634,1.0028 -0.859927,1.12507 v 7.27463 l -3.78164,3.90633 v -5.97481 c -0.419807,-0.11881 -0.731276,-0.51713 -0.731276,-0.98533 0,-0.56604 0.44689,-1.02376 0.995346,-1.02376 0.545074,0 0.991963,0.45772 0.991963,1.02376 0,0.4682 -0.308085,0.86652 -0.731279,0.98533 v 4.65756 l 2.728747,-2.8162 v -7.04751"
       id="path23" />
    <path
       style="opacity:0.515464;fill:#ffffff;fill-opacity:1;fill-rule:nonzero;stroke:none;stroke-width:0.123948;stroke-dasharray:none;stroke-opacity:1"
       d="m 60.206995,157.82216 c -0.451052,0 -0.815734,0.37131 -0.815734,0.82728 0,0.45597 0.364682,0.82726 0.815734,0.82726 0.447861,0 0.812541,-0.37129 0.812541,-0.82726 0,-0.45597 -0.36468,-0.82728 -0.812541,-0.82728 z m -2.14331,-7.9209 2.38963,2.43295 v 5.26322 c 0.467048,0.11726 0.815743,0.54392 0.815743,1.05201 0,0.59601 -0.476654,1.08131 -1.062063,1.08131 -0.58861,0 -1.065255,-0.4853 -1.065255,-1.08131 0,-0.50809 0.348687,-0.93475 0.815734,-1.05201 v -5.05478 l -1.394746,-1.41677 v 9.32465 l -1.663464,1.69686 c 0.201533,0.36479 0.153551,0.83378 -0.153551,1.14646 -0.364679,0.37129 -0.959694,0.37129 -1.324374,0 -0.367882,-0.37456 -0.367882,-0.98035 0,-1.35164 0.3039,-0.3094 0.767752,-0.36152 1.122835,-0.15308 l 1.519511,-1.54704 v -10.34083"
       id="path24" />
    <path
       style="opacity:0.463918;fill:#ffffff;fill-opacity:1;fill-rule:nonzero;stroke:#ffffff;stroke-width:0.103961;stroke-dasharray:none;stroke-opacity:1"
       d="m 39.311924,150.51925 c 0.345568,0 0.626966,-0.3385 0.626966,-0.75422 0,-0.41572 -0.281398,-0.75423 -0.626966,-0.75423 -0.345573,0 -0.626965,0.33851 -0.626965,0.75423 0,0.41572 0.281392,0.75422 0.626965,0.75422 z m 4.319634,6.61584 1.535319,1.844 c 0.273992,-0.19005 0.631901,-0.14254 0.866398,0.13956 0.283862,0.34148 0.283862,0.89082 0,1.23229 -0.281392,0.33853 -0.740511,0.33853 -1.021905,0 -0.234492,-0.28505 -0.273986,-0.71266 -0.11848,-1.04522 l -1.419307,-1.7074 h -2.078364 l -1.890761,2.27456 v 2.66949 l -2.453556,2.94862 v 8.96165 c 0.30608,0.10393 0.533166,0.43947 0.533166,0.84034 0,0.48105 -0.32582,0.87005 -0.723229,0.87005 -0.39988,0 -0.7257,-0.389 -0.7257,-0.87005 0,-0.40087 0.227086,-0.73641 0.533166,-0.84034 v -9.15467 l 2.451086,-2.94861 v -11.62818 c -0.36038,-0.10393 -0.626966,-0.49293 -0.626966,-0.95615 0,-0.54339 0.367792,-0.98584 0.819499,-0.98584 0.451709,0 0.819493,0.44245 0.819493,0.98584 0,0.46322 -0.269051,0.85222 -0.626959,0.95615 v 8.49546 l 1.73032,-2.08155 h 2.39678"
       id="path25" />
    <path
       style="opacity:0.515464;fill:#ffffff;fill-opacity:1;fill-rule:nonzero;stroke:none;stroke-width:1.12324"
       d="m 55.83395,237.29291 c 0,-0.71394 0.331277,-1.3168 0.782686,-1.4966 v -25.94466 l 5.453338,-7.92194 v -3.53791 c -0.45141,-0.1851 -0.782692,-0.78268 -0.782692,-1.49662 0,-0.85669 0.476899,-1.54947 1.066643,-1.54947 0.589749,0 1.066641,0.69278 1.066641,1.54947 0,0.71394 -0.331276,1.31152 -0.78269,1.49662 v 3.87636 l -5.453332,7.92193 v 25.60622 c 0.451408,0.1798 0.782685,0.78266 0.782685,1.4966 0,0.8514 -0.476893,1.54948 -1.066637,1.54948 -0.589749,0 -1.066642,-0.69808 -1.066642,-1.54948"
       id="path26" />
    <g
       clip-rule="nonzero"
       clip-path="url(#afaf48fce8)"
       id="g27"
       style="opacity:0.5189;fill:#ffffff;fill-opacity:1;stroke:none;stroke-width:0.32475;stroke-dasharray:none;stroke-opacity:1"
       transform="matrix(0.01423104,-0.83365323,0.81881223,0.01448897,-55.139456,337.1911)">
      <path
         style="fill:#ffffff;fill-opacity:1;fill-rule:nonzero;stroke:none;stroke-width:0.32475;stroke-dasharray:none;stroke-opacity:1"
         d="m 176.07422,153.30469 c -0.54688,0 -0.99219,0.44531 -0.99219,0.99609 0,0.54688 0.44531,0.99219 0.99219,0.99219 0.54687,0 0.99219,-0.44531 0.99219,-0.99219 0,-0.55078 -0.44532,-0.99609 -0.99219,-0.99609 z m 7.70312,-4.75 c 0,0.63281 -0.51172,1.14843 -1.14453,1.14843 -0.63281,0 -1.14453,-0.51562 -1.14453,-1.14843 0,-0.52344 0.35547,-0.96875 0.83984,-1.10157 v -3.58593 l -3.17187,-3.17188 v -5.48828 l -2.77734,2.77734 v 15.05469 c 0.57031,0.13672 0.99218,0.64844 0.99218,1.26172 0,0.71484 -0.58203,1.29688 -1.29687,1.29688 -0.71485,0 -1.29688,-0.58204 -1.29688,-1.29688 0,-0.61328 0.42578,-1.125 0.99219,-1.26172 v -15.30469 l 3.56641,-3.5664 h 5.97265 l 5.02735,-5.02735 v -4.67578 c -0.48438,-0.13281 -0.83985,-0.57812 -0.83985,-1.10546 0,-0.62891 0.51172,-1.14454 1.14453,-1.14454 0.63282,0 1.14454,0.51563 1.14454,1.14454 0,0.52734 -0.35547,0.97265 -0.83985,1.10546 v 4.92969 l -5.38281,5.38281 h -5.79688 v 5.66407 l 3.17188,3.17187 v 3.83984 c 0.48437,0.13282 0.83984,0.57813 0.83984,1.10157"
         id="path27" />
    </g>
    <g
       clip-rule="nonzero"
       clip-path="url(#74a1b695b4)"
       id="g28"
       transform="matrix(0.70921877,0,0,0.66015741,-63.540774,115.9078)"
       style="opacity:0.515464;fill:none;stroke:#ffffff;stroke-width:0.15;stroke-dasharray:none;stroke-opacity:1">
      <path
         style="fill:#ffffff;fill-opacity:1;fill-rule:nonzero;stroke:#ffffff;stroke-width:0.15;stroke-dasharray:none;stroke-opacity:1"
         d="m 159.90625,194.77734 c -0.55078,0 -0.99609,0.44532 -0.99609,0.9961 0,0.54687 0.44531,0.99218 0.99609,0.99218 0.54687,0 0.99219,-0.44531 0.99219,-0.99218 0,-0.55078 -0.44532,-0.9961 -0.99219,-0.9961 z m 3.45312,-90.35546 c 0,0.52734 -0.35546,0.96875 -0.83984,1.10156 v 28.61328 l -6.80469,6.80469 v 11.01953 l 4.49219,4.49218 v 38.0586 c 0.57031,0.13672 0.99609,0.64844 0.99609,1.26172 0,0.71484 -0.58203,1.29687 -1.29687,1.29687 -0.71484,0 -1.29688,-0.58203 -1.29688,-1.29687 0,-0.61328 0.42188,-1.125 0.99219,-1.26172 v -37.80469 l -4.49609,-4.49609 V 140.6875 l 6.80469,-6.80469 v -28.35937 c -0.48438,-0.13281 -0.83985,-0.57422 -0.83985,-1.10156 0,-0.63282 0.51172,-1.14454 1.14453,-1.14454 0.63282,0 1.14453,0.51172 1.14453,1.14454"
         id="path28" />
    </g>
    <path
       style="opacity:0.515464;fill:#ffffff;fill-opacity:1;fill-rule:nonzero;stroke:none;stroke-width:0.976378"
       d="m 41.556839,221.78399 c 0.535148,0 0.970913,-0.43382 0.970913,-0.96659 0,-0.53275 -0.435765,-0.96656 -0.970913,-0.96656 -0.535148,0 -0.970913,0.43381 -0.970913,0.96656 0,0.53277 0.435765,0.96659 0.970913,0.96659 z m 2.557246,4.85574 c 0,-0.61648 0.500746,-1.11499 1.119988,-1.11499 0.619245,0 1.119991,0.49851 1.119991,1.11499 0,0.50992 -0.347847,0.94375 -0.821835,1.07314 v 6.50729 l -4.273544,-4.25447 v -7.92293 c -0.558083,-0.13317 -0.970911,-0.63169 -0.970911,-1.22536 0,-0.69637 0.56955,-1.26339 1.269065,-1.26339 0.699516,0 1.269067,0.56702 1.269067,1.26339 0,0.59367 -0.412829,1.09219 -0.970913,1.22536 v 7.67557 l 3.080928,3.0672 v -5.07266 c -0.47399,-0.12939 -0.821836,-0.56322 -0.821836,-1.07314"
       id="path29" />
    <path
       style="opacity:0.463918;fill:#ffffff;fill-opacity:1;fill-rule:nonzero;stroke:none;stroke-width:0.123948;stroke-dasharray:none;stroke-opacity:1"
       d="m 43.786752,151.4755 c -0.447859,0 -0.81254,0.37129 -0.81254,0.82725 0,0.45599 0.364681,0.82728 0.81254,0.82728 0.447852,0 0.81254,-0.37129 0.81254,-0.82728 0,-0.45596 -0.364688,-0.82725 -0.81254,-0.82725 z m 4.785659,4.12004 c 0.36468,0.37128 0.36468,0.97708 0,1.35163 -0.367884,0.37129 -0.959696,0.37129 -1.327579,0 -0.303899,-0.31266 -0.355083,-0.78167 -0.150349,-1.14644 l -1.666665,-1.69688 v -9.32463 l -1.391544,1.41676 v 5.05478 c 0.463845,0.11726 0.812532,0.54392 0.812532,1.05199 0,0.59604 -0.476646,1.08132 -1.062054,1.08132 -0.585416,0 -1.062062,-0.48528 -1.062062,-1.08132 0,-0.50807 0.345493,-0.93473 0.812541,-1.05199 v -5.26322 l 2.38963,-2.43294 v 10.34081 l 1.519512,1.54706 c 0.358283,-0.20845 0.818937,-0.15634 1.126038,0.15307"
       id="path32" />
    <path
       style="opacity:0.473684;fill:#ffffff;fill-opacity:1;fill-rule:nonzero;stroke:none;stroke-width:0.826331"
       d="m 38.156249,194.65185 v -2.38734 c -0.396677,-0.11399 -0.687783,-0.48203 -0.687783,-0.92172 0,-0.52762 0.422268,-0.95428 0.937305,-0.95428 0.51823,0 0.937296,0.42666 0.937296,0.95428 0,0.43969 -0.291107,0.80773 -0.687783,0.92172 v 2.1789 l 4.792062,4.87891 v 15.36955 c 0.396664,0.11074 0.687776,0.48203 0.687776,0.91847 0,0.52761 -0.419065,0.95753 -0.937297,0.95753 -0.518231,0 -0.937296,-0.42992 -0.937296,-0.95753 0,-0.43644 0.291105,-0.80773 0.687775,-0.91847 v -15.16111 l -4.792055,-4.87891"
       id="path33" />
    <path
       style="opacity:0.463918;fill:#ffffff;fill-opacity:1;fill-rule:nonzero;stroke:none;stroke-width:0.793255"
       d="m 67.442704,147.85543 c -1.78e-4,-0.45664 -0.336896,-0.82802 -0.751988,-0.82748 -0.412152,1.3e-4 -0.747166,0.37278 -0.746458,0.82939 1.72e-4,0.45665 0.336908,0.82803 0.749053,0.82748 0.415093,-1.5e-4 0.750107,-0.37277 0.749393,-0.82939 z m 15.94588,2.91483 c -0.397437,1e-5 -0.730566,-0.2959 -0.831294,-0.70018 l -2.911526,0.004 -1.963097,2.18128 0.0069,4.29222 -3.353148,3.72905 -6.267581,0.009 -4.493406,4.99277 -21.184346,0.0273 c -0.09946,0.40455 -0.434591,0.7018 -0.83202,0.70231 -0.473979,5e-4 -0.863233,-0.42616 -0.864059,-0.95453 -6.33e-4,-0.52837 0.387086,-0.95615 0.861056,-0.95675 0.39743,-2e-5 0.73351,0.29585 0.834233,0.70015 l 20.992984,-0.0272 4.496347,-4.99275 6.26463,-0.008 3.085716,-3.4319 -0.0063,-4.08022 -3.757076,-4.15366 -5.823037,0.008 c -0.102295,0.47307 -0.487393,0.82907 -0.949586,0.82968 -0.538736,7.1e-4 -0.978159,-0.48472 -0.979085,-1.08159 -0.0011,-0.59686 0.436935,-1.0834 0.975688,-1.0841 0.462183,-4.9e-4 0.848397,0.35115 0.952166,0.8272 l 6.011458,-0.008 3.798358,4.19602 2.001305,-2.22372 3.102886,-0.004 c 0.09946,-0.40457 0.431641,-0.70181 0.829085,-0.70232 0.476909,-6.6e-4 0.86322,0.42616 0.864056,0.95454 5.65e-4,0.52835 -0.384156,0.95613 -0.861059,0.95674"
       id="path34" />
    <g
       style="fill:#fd8804;fill-opacity:1;stroke:#ffffff;stroke-width:0.69975;stroke-dasharray:none;stroke-opacity:1"
       id="g42"
       transform="matrix(1.6463284,0,0,1.9264348,-216.10155,-73.194677)">
      <g
         transform="translate(186.01321,141.32325)"
         id="g41"
         style="fill:#fd8804;fill-opacity:1;stroke:#ffffff;stroke-width:0.69975;stroke-dasharray:none;stroke-opacity:1">
        <path
           style="fill:#fd8804;fill-opacity:1;stroke:#ffffff;stroke-width:0.69975;stroke-dasharray:none;stroke-opacity:1"
           d="m 0.96875,-15.765625 c 0,-0.132813 0.046875,-0.25 0.140625,-0.34375 C 1.210938,-16.203125 1.332031,-16.25 1.46875,-16.25 h 2.171875 c 0.132813,0 0.25,0.04687 0.34375,0.140625 0.09375,0.09375 0.140625,0.210937 0.140625,0.34375 V -5 c 0,0.210938 0.078125,0.390625 0.234375,0.546875 L 5.59375,-3.3125 c 0.0625,0.0625 0.171875,0.09375 0.328125,0.09375 H 13.75 c 0.132812,0 0.242188,-0.03125 0.328125,-0.09375 L 15.3125,-4.453125 C 15.46875,-4.585938 15.546875,-4.769531 15.546875,-5 v -10.765625 c 0,-0.132813 0.04687,-0.25 0.140625,-0.34375 0.09375,-0.09375 0.207031,-0.140625 0.34375,-0.140625 h 2.171875 c 0.132813,0 0.25,0.04687 0.34375,0.140625 0.101563,0.09375 0.15625,0.210937 0.15625,0.34375 V -3.9375 c 0,0.34375 -0.121094,0.625 -0.359375,0.84375 l -2.859375,2.703125 c -0.136719,0.105469 -0.28125,0.199219 -0.4375,0.28125 C 14.898438,-0.0351562 14.71875,0 14.5,0 H 5.171875 C 4.953125,0 4.769531,-0.0351562 4.625,-0.109375 4.488281,-0.191406 4.34375,-0.285156 4.1875,-0.390625 L 1.328125,-3.09375 C 1.085938,-3.332031 0.96875,-3.613281 0.96875,-3.9375 Z m 0,0"
           id="path41" />
      </g>
    </g>
    <path
       style="opacity:0.515464;fill:#ffffff;fill-opacity:1;fill-rule:nonzero;stroke:none;stroke-width:0.826331"
       d="m 44.831045,171.26582 c 0,0.45597 0.364681,0.82727 0.815743,0.82727 0.447852,0 0.812531,-0.3713 0.812531,-0.82727 0,-0.45597 -0.364679,-0.82726 -0.812531,-0.82726 -0.451062,0 -0.815743,0.37129 -0.815743,0.82726 z m 1.877796,0 c 0,0.50808 -0.348686,0.93474 -0.815734,1.04873 v 13.2623 l 3.179772,3.23416 v 10.04118 c 0.396668,0.11399 0.687776,0.48202 0.687776,0.92171 0,0.52763 -0.419066,0.9543 -0.937297,0.9543 -0.518231,0 -0.937297,-0.42667 -0.937297,-0.9543 0,-0.43969 0.291108,-0.80772 0.687776,-0.92171 v -9.82948 l -3.176571,-3.23415 v -2.92799 l -2.453613,-2.49483 h -2.693531 l -1.839403,1.87275 c 0.201532,0.36477 0.153551,0.83378 -0.153551,1.14644 -0.36468,0.3713 -0.959694,0.3713 -1.324375,0 -0.367882,-0.37454 -0.367882,-0.97709 0,-1.35164 0.3039,-0.30941 0.767754,-0.36151 1.126038,-0.15307 l 1.986558,-2.02256 h 3.106199 l 2.245678,2.28312 v -9.82623 c -0.467047,-0.11399 -0.815742,-0.54065 -0.815742,-1.04873 0,-0.59602 0.476653,-1.08131 1.065264,-1.08131 0.585408,0 1.062053,0.48529 1.062053,1.08131"
       id="path31" />
    <g
       style="fill:#fd8804;fill-opacity:1;stroke:#ffffff;stroke-width:0.69975;stroke-dasharray:none;stroke-opacity:1"
       id="g46"
       transform="matrix(1.6463284,0,0,1.9264348,-234.80204,-73.391297)">
      <g
         transform="translate(239.9474,141.32325)"
         id="g45"
         style="fill:#fd8804;fill-opacity:1;stroke:#ffffff;stroke-width:0.69975;stroke-dasharray:none;stroke-opacity:1">
        <path
           style="fill:#fd8804;fill-opacity:1;stroke:#ffffff;stroke-width:0.69975;stroke-dasharray:none;stroke-opacity:1"
           d="m 0.96875,-15.765625 c 0,-0.132813 0.046875,-0.25 0.140625,-0.34375 C 1.210938,-16.203125 1.332031,-16.25 1.46875,-16.25 h 2.171875 c 0.132813,0 0.25,0.04687 0.34375,0.140625 0.09375,0.09375 0.140625,0.210937 0.140625,0.34375 V -5 c 0,0.210938 0.078125,0.390625 0.234375,0.546875 L 5.59375,-3.3125 c 0.0625,0.0625 0.171875,0.09375 0.328125,0.09375 H 13.75 c 0.132812,0 0.242188,-0.03125 0.328125,-0.09375 L 15.3125,-4.453125 C 15.46875,-4.585938 15.546875,-4.769531 15.546875,-5 v -10.765625 c 0,-0.132813 0.04687,-0.25 0.140625,-0.34375 0.09375,-0.09375 0.207031,-0.140625 0.34375,-0.140625 h 2.171875 c 0.132813,0 0.25,0.04687 0.34375,0.140625 0.101563,0.09375 0.15625,0.210937 0.15625,0.34375 V -3.9375 c 0,0.34375 -0.121094,0.625 -0.359375,0.84375 l -2.859375,2.703125 c -0.136719,0.105469 -0.28125,0.199219 -0.4375,0.28125 C 14.898438,-0.0351562 14.71875,0 14.5,0 H 5.171875 C 4.953125,0 4.769531,-0.0351562 4.625,-0.109375 4.488281,-0.191406 4.34375,-0.285156 4.1875,-0.390625 L 1.328125,-3.09375 C 1.085938,-3.332031 0.96875,-3.613281 0.96875,-3.9375 Z m 0,0"
           id="path44" />
      </g>
    </g>
    <g
       style="fill:#fd8804;fill-opacity:1;stroke:#ffffff;stroke-width:0.69975;stroke-dasharray:none;stroke-opacity:1"
       id="g44"
       transform="matrix(1.6463284,0,0,1.9264348,-225.42843,-73.457164)">
      <g
         transform="translate(211.27365,141.32325)"
         id="g43"
         style="stroke:#ffffff;stroke-width:0.69975;stroke-dasharray:none;stroke-opacity:1">
        <path
           style="stroke:#ffffff;stroke-width:0.69975;stroke-dasharray:none;stroke-opacity:1"
           d="m 21.625,-16.25 c 0.125,0 0.234375,0.04687 0.328125,0.140625 0.101563,0.09375 0.15625,0.210937 0.15625,0.34375 v 2.4375 c 0,0.125 -0.05469,0.242187 -0.15625,0.34375 -0.09375,0.09375 -0.203125,0.140625 -0.328125,0.140625 h -8.359375 v 12.359375 c 0,0.125 -0.05469,0.242187 -0.15625,0.34375 C 13.015625,-0.046875 12.90625,0 12.78125,0 h -2.4375 C 10.207031,0 10.09375,-0.046875 10,-0.140625 9.90625,-0.242188 9.859375,-0.359375 9.859375,-0.484375 V -12.84375 H 1.46875 c -0.136719,0 -0.257812,-0.04687 -0.359375,-0.140625 -0.09375,-0.101563 -0.140625,-0.21875 -0.140625,-0.34375 v -2.4375 c 0,-0.132813 0.046875,-0.25 0.140625,-0.34375 C 1.210938,-16.203125 1.332031,-16.25 1.46875,-16.25 Z m 0,0"
           id="path42" />
      </g>
    </g>
    <g
       style="fill:#022d5e;fill-opacity:1;stroke:#ffffff;stroke-width:0.69975;stroke-dasharray:none;stroke-opacity:1"
       id="g44-6"
       transform="matrix(2.7148291,0,0,3.2551653,-539.62104,-202.84143)">
      <g
         transform="translate(211.27365,141.32325)"
         id="g43-4"
         style="fill:#022d5e;fill-opacity:1;stroke:#ffffff;stroke-width:0.69975;stroke-dasharray:none;stroke-opacity:1">
        <path
           style="fill:#022d5e;fill-opacity:1;stroke:#ffffff;stroke-width:0.69975;stroke-dasharray:none;stroke-opacity:1"
           d="m 21.625,-16.25 c 0.125,0 0.234375,0.04687 0.328125,0.140625 0.101563,0.09375 0.15625,0.210937 0.15625,0.34375 v 2.4375 c 0,0.125 -0.05469,0.242187 -0.15625,0.34375 -0.09375,0.09375 -0.203125,0.140625 -0.328125,0.140625 h -8.359375 v 12.359375 c 0,0.125 -0.05469,0.242187 -0.15625,0.34375 C 13.015625,-0.046875 12.90625,0 12.78125,0 h -2.4375 C 10.207031,0 10.09375,-0.046875 10,-0.140625 9.90625,-0.242188 9.859375,-0.359375 9.859375,-0.484375 V -12.84375 H 1.46875 c -0.136719,0 -0.257812,-0.04687 -0.359375,-0.140625 -0.09375,-0.101563 -0.140625,-0.21875 -0.140625,-0.34375 v -2.4375 c 0,-0.132813 0.046875,-0.25 0.140625,-0.34375 C 1.210938,-16.203125 1.332031,-16.25 1.46875,-16.25 Z m 0,0"
           id="path42-3" />
      </g>
    </g>
    <g
       style="fill:#fd8804;fill-opacity:1;stroke:#ffffff;stroke-width:0.69975;stroke-dasharray:none;stroke-opacity:1"
       id="g48"
       transform="matrix(1.6463284,0,0,1.9264348,-243.25888,-73.274093)">
      <g
         transform="translate(265.20784,141.32325)"
         id="g47"
         style="stroke:#ffffff;stroke-width:0.69975;stroke-dasharray:none;stroke-opacity:1">
        <path
           style="stroke:#ffffff;stroke-width:0.69975;stroke-dasharray:none;stroke-opacity:1"
           d="m 18.796875,-13.03125 c 0.257813,0.25 0.390625,0.574219 0.390625,0.96875 v 4.328125 c 0,0.148437 -0.04297,0.296875 -0.125,0.453125 -0.07422,0.148438 -0.164062,0.277344 -0.265625,0.390625 L 16.125,-4.234375 18.34375,-0.6875 c 0.101562,0.15625 0.109375,0.3125 0.01563,0.46875 C 18.273438,-0.0703125 18.140625,0 17.953125,0 h -2.4375 c -0.199219,0 -0.367187,-0.0976562 -0.5,-0.296875 L 13,-3.578125 H 4.1875 v 3.09375 c 0,0.125 -0.046875,0.242187 -0.140625,0.34375 C 3.953125,-0.046875 3.835938,0 3.703125,0 H 1.46875 C 1.332031,0 1.210938,-0.046875 1.109375,-0.140625 1.015625,-0.242188 0.96875,-0.359375 0.96875,-0.484375 v -15.28125 c 0,-0.132813 0.046875,-0.25 0.140625,-0.34375 C 1.210938,-16.203125 1.332031,-16.25 1.46875,-16.25 h 13.546875 c 0.332031,0 0.617187,0.117188 0.859375,0.34375 z M 4.1875,-13.109375 v 6.3125 h 9.828125 c 0.144531,0 0.304687,-0.085937 0.484375,-0.265625 l 1.046875,-0.96875 c 0.144531,-0.15625 0.21875,-0.335938 0.21875,-0.546875 V -11.3125 c 0,-0.132812 -0.03125,-0.242188 -0.09375,-0.328125 l -0.15625,-0.1875 L 14.53125,-12.875 c -0.148438,-0.15625 -0.328125,-0.234375 -0.546875,-0.234375 z m 0,0"
           id="path46" />
      </g>
    </g>
    <g
       style="fill:#fd8804;fill-opacity:1;stroke:#ffffff;stroke-width:0.69975;stroke-dasharray:none;stroke-opacity:1"
       id="g50"
       transform="matrix(1.6463284,0,0,1.9264348,-252.63535,-73.523738)">
      <g
         transform="translate(290.95589,141.32325)"
         id="g49"
         style="fill:#fd8804;fill-opacity:1;stroke:#ffffff;stroke-width:0.69975;stroke-dasharray:none;stroke-opacity:1">
        <path
           style="fill:#fd8804;fill-opacity:1;stroke:#ffffff;stroke-width:0.69975;stroke-dasharray:none;stroke-opacity:1"
           d="M 4.625,-11.796875 C 4.46875,-11.648438 4.390625,-11.46875 4.390625,-11.25 v 1.390625 h 11.90625 c 0.125,0 0.234375,0.054687 0.328125,0.15625 0.101562,0.09375 0.15625,0.210937 0.15625,0.34375 V -7.125 c 0,0.136719 -0.05469,0.25 -0.15625,0.34375 -0.09375,0.09375 -0.203125,0.140625 -0.328125,0.140625 H 4.390625 V -4.9375 c 0,0.105469 0.03125,0.210938 0.09375,0.3125 L 5.625,-3.375 c 0.15625,0.148438 0.335938,0.21875 0.546875,0.21875 h 11.71875 c 0.125,0 0.234375,0.054688 0.328125,0.15625 0.101562,0.09375 0.15625,0.203125 0.15625,0.328125 v 2.1875 c 0,0.125 -0.05469,0.242187 -0.15625,0.34375 C 18.125,-0.046875 18.015625,0 17.890625,0 H 4.96875 C 4.644531,0 4.363281,-0.117188 4.125,-0.359375 L 1.359375,-3.0625 C 1.097656,-3.320312 0.96875,-3.644531 0.96875,-4.03125 v -8.234375 c 0,-0.164063 0.039062,-0.320313 0.125,-0.46875 0.09375,-0.15625 0.179688,-0.28125 0.265625,-0.375 L 4.125,-15.875 c 0.257812,-0.25 0.578125,-0.375 0.953125,-0.375 h 12.8125 c 0.125,0 0.234375,0.04687 0.328125,0.140625 0.101562,0.09375 0.15625,0.210937 0.15625,0.34375 v 2.234375 c 0,0.136719 -0.05469,0.257812 -0.15625,0.359375 -0.09375,0.09375 -0.203125,0.140625 -0.328125,0.140625 h -11.75 c -0.148437,0 -0.308594,0.08594 -0.484375,0.25 z m 0,0"
           id="path48" />
      </g>
    </g>
    <path
       style="opacity:0.95356;fill:#022d5e;fill-opacity:1;fill-rule:nonzero;stroke:none;stroke-width:0.976378"
       d="m 48.460896,199.58295 h -0.577204 c -0.225526,0 -0.40518,-0.17506 -0.40518,-0.39958 0,-0.22832 0.179654,-0.40336 0.40518,-0.40336 h 0.577204 c 0.225518,0 0.40518,0.17504 0.40518,0.40336 0,0.22452 -0.179662,0.39958 -0.40518,0.39958 z m 0,0"
       id="path50" />
    <path
       style="fill:#fd8804;fill-opacity:1;fill-rule:nonzero;stroke:none;stroke-width:1.57639"
       d="m 123.36876,161.93615 h -0.89984 c -0.35161,0 -0.63168,-0.29905 -0.63168,-0.67445 0,-0.37541 0.28007,-0.67446 0.63168,-0.67446 h 0.89984 c 0.35161,0 0.63169,0.29905 0.63169,0.67446 0,0.3754 -0.28008,0.67445 -0.63169,0.67445 z m 0,0"
       id="path53" />
    <path
       id="path54"
       style="opacity:1;fill:#fd8804;fill-opacity:1;fill-rule:nonzero;stroke:none;stroke-width:1.68797"
       d="m 137.04395,160.93631 c -0.40031,0 -0.7194,0.29417 -0.7194,0.67862 0,0.37807 0.31909,0.67291 0.7194,0.67291 h 123.90651 l 5.35371,5.05676 v 28.73243 l -5.39415,5.08812 h -7.40318 c -0.40032,0 -0.71941,0.30055 -0.71941,0.67861 0,0.37808 0.31909,0.6786 0.71941,0.6786 h 7.70155 v 0.02 c 0.19677,0 0.38016,-0.0772 0.51585,-0.20529 l 5.81381,-5.48445 c 0.14237,-0.13455 0.21052,-0.30175 0.21052,-0.48756 v -29.28985 c 0,-0.18582 -0.0817,-0.35946 -0.21052,-0.48757 l -5.77338,-5.45309 c -0.14248,-0.1346 -0.31908,-0.19817 -0.51586,-0.19817 h -63.5754 c -0.63454,0.37791 -1.34023,0.6401 -2.0634,0.767 -0.44428,0.0784 -0.8997,0.0578 -1.34958,0.0869 -0.68057,-0.11966 -1.82051,-0.16451 -2.31019,-0.85396 z" />
    <path
       style="fill:#fd8804;fill-opacity:1;fill-rule:nonzero;stroke:none;stroke-width:1.57639"
       d="m 130.51831,161.90307 h -1.08458 c -0.3516,0 -0.6317,-0.29904 -0.6317,-0.67446 0,-0.3754 0.2801,-0.67445 0.6317,-0.67445 h 1.08458 c 0.3516,0 0.6317,0.29905 0.6317,0.67445 0,0.37542 -0.2801,0.67446 -0.6317,0.67446 z m 0,0"
       id="path55" />
    <path
       style="fill:#fd8804;fill-opacity:1;fill-rule:nonzero;stroke:none;stroke-width:1.57639"
       d="m 115.21182,162.01329 h -0.89985 c -0.3516,0 -0.63167,-0.29907 -0.63167,-0.67445 0,-0.37541 0.28007,-0.67447 0.63167,-0.67447 h 0.89985 c 0.35162,0 0.63171,0.29906 0.63171,0.67447 0,0.37538 -0.28009,0.67445 -0.63171,0.67445 z m 0,0"
       id="path56" />
    <path
       style="opacity:0.990712;fill:#022d5e;fill-opacity:1;fill-rule:nonzero;stroke:none;stroke-width:0.976378"
       d="m 51.847774,199.63816 h -0.581019 c -0.225527,0 -0.40518,-0.17505 -0.40518,-0.39957 0,-0.22833 0.179653,-0.40338 0.40518,-0.40338 h 0.581019 c 0.225529,0 0.405193,0.17505 0.405193,0.40338 0,0.22452 -0.179664,0.39957 -0.405193,0.39957 z m 0,0"
       id="path57" />
    <path
       style="opacity:0.990712;fill:#022d5e;fill-opacity:1;fill-rule:nonzero;stroke:none;stroke-width:0.976378"
       d="m 44.353954,199.57181 h -0.581019 c -0.225528,0 -0.405181,-0.17505 -0.405181,-0.39957 0,-0.22832 0.179653,-0.40338 0.405181,-0.40338 h 0.581019 c 0.225528,0 0.405192,0.17506 0.405192,0.40338 0,0.22452 -0.179664,0.39957 -0.405192,0.39957 z m 0,0"
       id="path57-5" />
    <path
       style="fill:#022d5e;fill-opacity:1;fill-rule:nonzero;stroke:none;stroke-width:0.976378"
       d="m 40.121993,199.48905 h -4.602282 c -0.225528,0 -0.405182,-0.17506 -0.405182,-0.39956 0,-0.22834 0.179654,-0.4034 0.405182,-0.4034 h 4.602282 c 0.225519,0 0.405181,0.17506 0.405181,0.4034 0,0.2245 -0.179662,0.39956 -0.405181,0.39956 z m 0,0"
       id="path58" />
    <path
       style="opacity:1;fill:#022d5e;fill-opacity:1;fill-rule:nonzero;stroke:none;stroke-width:1.03708"
       d="m 35.341457,222.09105 c -0.123038,0 -0.246079,-0.036 -0.346334,-0.11526 l -3.887096,-3.07194 c -0.0911,-0.072 -0.145822,-0.16925 -0.145822,-0.27371 v -16.46175 c 0,-0.10442 0.05017,-0.19807 0.145822,-0.2737 l 3.887096,-3.07555 c 0.18684,-0.14764 0.49672,-0.14764 0.683547,0 0.186841,0.14766 0.186841,0.39256 0,0.54022 l -3.745831,2.96029 v 16.14842 l 3.745831,2.96032 c 0.186841,0.14407 0.186841,0.39255 0,0.53659 -0.09566,0.0792 -0.218735,0.11526 -0.341773,0.11526 z m 0,0"
       id="path59" />
    <g
       clip-rule="nonzero"
       clip-path="url(#010245b83e)"
       id="g62"
       transform="matrix(0.8189359,0,0,0.83377917,-79.972606,34.436869)"
       style="opacity:1;fill:#ffffff;fill-opacity:1;stroke:none;stroke-width:0.69975;stroke-linecap:square;stroke-linejoin:bevel;stroke-miterlimit:4.9;stroke-dasharray:none;stroke-dashoffset:0;stroke-opacity:1;paint-order:normal">
      <path
         style="fill:#ffffff;fill-opacity:1;fill-rule:nonzero;stroke:none;stroke-width:0.69975;stroke-linecap:square;stroke-linejoin:bevel;stroke-miterlimit:4.9;stroke-dasharray:none;stroke-dashoffset:0;stroke-opacity:1;paint-order:normal"
         d="m 192.23437,165.78906 h 3.08594 c 0.1211,0 0.22656,0.043 0.3086,0.12891 0.0859,0.0859 0.1289,0.1875 0.1289,0.30859 v 3.08594 c 0,0.12109 -0.043,0.22266 -0.1289,0.30859 -0.082,0.0859 -0.1875,0.12891 -0.3086,0.12891 h -3.08594 c -0.12109,0 -0.22265,-0.043 -0.30859,-0.12891 -0.0859,-0.0859 -0.12891,-0.1875 -0.12891,-0.30859 v -3.08594 c 0,-0.12109 0.043,-0.22265 0.12891,-0.30859 0.0859,-0.0859 0.1875,-0.12891 0.30859,-0.12891 z m 0,0"
         id="path62" />
    </g>
    <g
       clip-rule="nonzero"
       clip-path="url(#64318b5fdd)"
       id="g64"
       transform="matrix(1.7553965,0,0,1.5347739,-270.37932,-40.745313)">
      <path
         style="fill:#fd8804;fill-opacity:1;fill-rule:nonzero;stroke:none"
         d="m 268.51172,190.32812 h 3.08594 c 0.12109,0 0.22265,0.043 0.30859,0.12891 0.0859,0.082 0.12891,0.1875 0.12891,0.30859 v 3.08594 c 0,0.1211 -0.043,0.22266 -0.12891,0.3086 -0.0859,0.0859 -0.1875,0.1289 -0.30859,0.1289 h -3.08594 c -0.1211,0 -0.22656,-0.043 -0.3086,-0.1289 -0.0859,-0.0859 -0.1289,-0.1875 -0.1289,-0.3086 v -3.08594 c 0,-0.12109 0.043,-0.22656 0.1289,-0.30859 0.082,-0.0859 0.1875,-0.12891 0.3086,-0.12891 z m 0,0"
         id="path64" />
    </g>
    <g
       clip-rule="nonzero"
       clip-path="url(#4046dd648a)"
       id="g65"
       transform="matrix(1.7553965,0,0,1.5347739,-270.37932,-43.047471)">
      <path
         style="fill:#fd8804;fill-opacity:1;fill-rule:nonzero;stroke:none"
         d="m 263.83984,190.32812 h 3.08594 c 0.12109,0 0.22266,0.043 0.30859,0.12891 0.0859,0.082 0.12891,0.1875 0.12891,0.30859 v 3.08594 c 0,0.1211 -0.043,0.22266 -0.12891,0.3086 -0.0859,0.0859 -0.1875,0.1289 -0.30859,0.1289 h -3.08594 c -0.12109,0 -0.22265,-0.043 -0.30859,-0.1289 -0.0859,-0.0859 -0.12891,-0.1875 -0.12891,-0.3086 v -3.08594 c 0,-0.12109 0.043,-0.22656 0.12891,-0.30859 0.0859,-0.0859 0.1875,-0.12891 0.30859,-0.12891 z m 0,0"
         id="path65" />
    </g>
    <g
       clip-rule="nonzero"
       clip-path="url(#b7e385acda)"
       id="g66"
       transform="matrix(1.7553965,0,0,1.5347739,-270.37932,-38.443146)">
      <path
         style="fill:#fd8804;fill-opacity:1;fill-rule:nonzero;stroke:none"
         d="m 259.28516,190.32812 h 3.08984 c 0.11719,0 0.22266,0.043 0.30859,0.12891 0.0859,0.082 0.12891,0.1875 0.12891,0.30859 v 3.08594 c 0,0.1211 -0.043,0.22266 -0.12891,0.3086 -0.0859,0.0859 -0.1914,0.1289 -0.30859,0.1289 h -3.08984 c -0.1211,0 -0.22266,-0.043 -0.3086,-0.1289 -0.0859,-0.0859 -0.1289,-0.1875 -0.1289,-0.3086 v -3.08594 c 0,-0.12109 0.043,-0.22656 0.1289,-0.30859 0.0859,-0.0859 0.1875,-0.12891 0.3086,-0.12891 z m 0,0"
         id="path66" />
    </g>
    <g
       clip-rule="nonzero"
       clip-path="url(#16536a51ed)"
       id="g67"
       transform="matrix(1.7553965,0,0,1.5347739,-270.37932,-40.745313)"
       style="opacity:1;stroke-width:0.99975;stroke-dasharray:none">
      <path
         style="fill:#fd8804;fill-opacity:1;fill-rule:nonzero;stroke:none;stroke-width:0.99975;stroke-dasharray:none"
         d="m 254.73437,190.32812 h 3.08594 c 0.1211,0 0.22266,0.043 0.3086,0.12891 0.0859,0.082 0.1289,0.1875 0.1289,0.30859 v 3.08594 c 0,0.1211 -0.043,0.22266 -0.1289,0.3086 -0.0859,0.0859 -0.1875,0.1289 -0.3086,0.1289 h -3.08594 c -0.12109,0 -0.22265,-0.043 -0.30859,-0.1289 -0.0859,-0.0859 -0.12891,-0.1875 -0.12891,-0.3086 v -3.08594 c 0,-0.12109 0.043,-0.22656 0.12891,-0.30859 0.0859,-0.0859 0.1875,-0.12891 0.30859,-0.12891 z m 0,0"
         id="path67" />
    </g>
    <path
       style="fill:#fd8804;fill-opacity:1;fill-rule:nonzero;stroke:none;stroke-width:1.64138"
       d="m 86.925812,251.75608 c -0.185144,0 -0.370274,-0.066 -0.514278,-0.19184 l -5.951894,-5.20385 c -0.130243,-0.11387 -0.212557,-0.27577 -0.212557,-0.44964 v -2.6259 c 0,-0.35372 0.315413,-0.63548 0.719985,-0.63548 0.411427,0 0.726841,0.28176 0.726841,0.63548 v 2.36212 l 5.73248,5.00598 c 0.281117,0.24582 0.281117,0.65348 0,0.89929 -0.143943,0.12586 -0.329141,0.19186 -0.52114,0.19186 z m 0,0"
       id="path68" />
    <path
       style="fill:#fd8804;fill-opacity:1;fill-rule:nonzero;stroke:none;stroke-width:1.64138"
       d="m 117.62457,228.32252 c -0.40459,0 -0.72687,-0.28178 -0.72687,-0.6355 v -3.03958 c 0,-0.17385 0.0755,-0.32974 0.21943,-0.45563 l 5.99304,-5.22782 c 0.28113,-0.24582 0.74741,-0.24582 1.02853,0 0.27429,0.2458 0.27429,0.65348 0,0.89928 l -5.77358,5.04196 v 2.78179 c 0,0.35372 -0.32229,0.6355 -0.72685,0.6355 z m 0,0"
       id="path69" />
    <path
       style="fill:#fd8804;fill-opacity:1;fill-rule:nonzero;stroke:none;stroke-width:1.48834;stroke-opacity:1"
       d="m 197.02532,222.10769 c -0.33262,0 -0.59765,-0.28175 -0.59765,-0.63549 v -2.35611 l -4.70783,-5.02399 c -0.23112,-0.23981 -0.23112,-0.65347 0,-0.89328 0.23128,-0.2458 0.61458,-0.2458 0.84574,0 l 4.88823,5.19784 c 0.11253,0.11986 0.18042,0.28176 0.18042,0.45565 v 2.61989 c 0,0.35374 -0.26499,0.63549 -0.59764,0.63549 z m 0,0"
       id="path72" />
    <path
       style="opacity:1;fill:#fd8804;fill-opacity:1;fill-rule:nonzero;stroke:none;stroke-width:1.64138"
       d="m 149.34816,250.64619 c -0.18512,0 -0.37712,-0.066 -0.52113,-0.19187 -0.28113,-0.24579 -0.28113,-0.65347 0,-0.89926 l 5.77363,-5.04798 v -2.77578 c 0,-0.35372 0.32227,-0.63549 0.72682,-0.63549 0.40457,0 0.72686,0.28177 0.72686,0.63549 v 3.03958 c 0,0.17385 -0.0756,0.32972 -0.21941,0.45562 l -5.97933,5.23384 c -0.14395,0.13182 -0.32915,0.19183 -0.52114,0.19183 z m 0,0"
       id="path73" />
    <g
       style="fill:none;fill-opacity:1;stroke:#ffffff;stroke-width:0.99975;stroke-dasharray:none;stroke-opacity:1"
       id="g76"
       transform="matrix(1.7553965,0,0,1.5347739,-243.60619,-41.017698)">
      <g
         transform="translate(186.00149,187.55975)"
         id="g75"
         style="fill:none;stroke:#ffffff;stroke-width:0.99975;stroke-dasharray:none;stroke-opacity:1">
        <path
           style="fill:none;stroke:#ffffff;stroke-width:0.99975;stroke-dasharray:none;stroke-opacity:1"
           d="M 4.625,-11.796875 C 4.46875,-11.648438 4.390625,-11.46875 4.390625,-11.25 v 1.390625 h 11.90625 c 0.125,0 0.234375,0.054687 0.328125,0.15625 0.101562,0.09375 0.15625,0.210937 0.15625,0.34375 V -7.125 c 0,0.136719 -0.05469,0.25 -0.15625,0.34375 -0.09375,0.09375 -0.203125,0.140625 -0.328125,0.140625 H 4.390625 V -4.9375 c 0,0.105469 0.03125,0.210938 0.09375,0.3125 L 5.625,-3.375 c 0.15625,0.148438 0.335938,0.21875 0.546875,0.21875 h 11.71875 c 0.125,0 0.234375,0.054688 0.328125,0.15625 0.101562,0.09375 0.15625,0.203125 0.15625,0.328125 v 2.1875 c 0,0.125 -0.05469,0.242187 -0.15625,0.34375 C 18.125,-0.046875 18.015625,0 17.890625,0 H 4.96875 C 4.644531,0 4.363281,-0.117188 4.125,-0.359375 L 1.359375,-3.0625 C 1.097656,-3.320312 0.96875,-3.644531 0.96875,-4.03125 v -8.234375 c 0,-0.164063 0.039062,-0.320313 0.125,-0.46875 0.09375,-0.15625 0.179688,-0.28125 0.265625,-0.375 L 4.125,-15.875 c 0.257812,-0.25 0.578125,-0.375 0.953125,-0.375 h 12.8125 c 0.125,0 0.234375,0.04687 0.328125,0.140625 0.101562,0.09375 0.15625,0.210937 0.15625,0.34375 v 2.234375 c 0,0.136719 -0.05469,0.257812 -0.15625,0.359375 -0.09375,0.09375 -0.203125,0.140625 -0.328125,0.140625 h -11.75 c -0.148437,0 -0.308594,0.08594 -0.484375,0.25 z m 0,0"
           id="path75" />
      </g>
    </g>
    <g
       style="fill:#022d5e;fill-opacity:1;stroke:#ffffff;stroke-width:0.99975;stroke-dasharray:none;stroke-opacity:1"
       id="g78"
       transform="matrix(1.7553965,0,0,1.5347739,-250.70645,-41.599581)">
      <g
         transform="translate(210.93685,187.55975)"
         id="g77"
         style="fill:#022d5e;fill-opacity:1;stroke:#ffffff;stroke-width:0.99975;stroke-dasharray:none;stroke-opacity:1">
        <path
           style="fill:#022d5e;fill-opacity:1;stroke:#ffffff;stroke-width:0.99975;stroke-dasharray:none;stroke-opacity:1"
           d="m 16.03125,-9.78125 c -0.136719,0 -0.25,-0.046875 -0.34375,-0.140625 -0.09375,-0.101563 -0.140625,-0.222656 -0.140625,-0.359375 v -1.125 c 0,-0.238281 -0.07813,-0.425781 -0.234375,-0.5625 L 14.28125,-12.9375 C 14.101562,-13.113281 13.925781,-13.203125 13.75,-13.203125 H 6.140625 c -0.148437,0 -0.308594,0.08984 -0.484375,0.265625 L 4.625,-11.96875 c -0.15625,0.15625 -0.234375,0.34375 -0.234375,0.5625 v 6.5625 c 0,0.21875 0.078125,0.402344 0.234375,0.546875 L 5.65625,-3.3125 c 0.175781,0.167969 0.335938,0.25 0.484375,0.25 H 13.75 c 0.175781,0 0.351562,-0.082031 0.53125,-0.25 l 1.03125,-0.984375 c 0.15625,-0.125 0.234375,-0.304687 0.234375,-0.546875 v -1.140625 c 0,-0.125 0.04687,-0.234375 0.140625,-0.328125 0.09375,-0.101562 0.207031,-0.15625 0.34375,-0.15625 h 2.171875 c 0.132813,0 0.25,0.054688 0.34375,0.15625 0.101563,0.09375 0.15625,0.203125 0.15625,0.328125 V -4 c 0,0.324219 -0.121094,0.605469 -0.359375,0.84375 l -2.859375,2.921875 C 15.222656,0.0234375 14.894531,0.15625 14.5,0.15625 H 5.234375 c -0.367187,0 -0.679687,-0.1328125 -0.9375,-0.390625 L 1.359375,-3.15625 C 1.273438,-3.257812 1.1875,-3.382812 1.09375,-3.53125 1.007812,-3.6875 0.96875,-3.84375 0.96875,-4 v -8.265625 c 0,-0.164063 0.039062,-0.320313 0.125,-0.46875 0.09375,-0.15625 0.179688,-0.28125 0.265625,-0.375 l 2.9375,-2.921875 c 0.257813,-0.257812 0.570313,-0.390625 0.9375,-0.390625 H 14.5 c 0.394531,0 0.722656,0.132813 0.984375,0.390625 l 2.859375,2.921875 c 0.238281,0.242187 0.359375,0.523437 0.359375,0.84375 v 1.984375 c 0,0.136719 -0.05469,0.257812 -0.15625,0.359375 -0.09375,0.09375 -0.210937,0.140625 -0.34375,0.140625 z m 0,0"
           id="path76" />
      </g>
    </g>
    <g
       style="fill:#0e2c52;fill-opacity:1;stroke:#ffffff;stroke-width:0.99975;stroke-dasharray:none;stroke-opacity:1"
       id="g80"
       transform="matrix(1.7553965,0,0,1.5347739,-253.54656,-43.177076)">
      <g
         transform="translate(236.19728,187.55975)"
         id="g79"
         style="fill:#0e2c52;fill-opacity:1;stroke:#ffffff;stroke-width:0.99975;stroke-dasharray:none;stroke-opacity:1">
        <path
           style="fill:#0e2c52;fill-opacity:1;stroke:#ffffff;stroke-width:0.99975;stroke-dasharray:none;stroke-opacity:1"
           d="m 18.203125,-16.25 c 0.132813,0 0.25,0.04687 0.34375,0.140625 0.101563,0.09375 0.15625,0.210937 0.15625,0.34375 v 15.28125 c 0,0.125 -0.05469,0.242187 -0.15625,0.34375 C 18.453125,-0.046875 18.335938,0 18.203125,0 h -2.4375 c -0.125,0 -0.242187,-0.046875 -0.34375,-0.140625 -0.09375,-0.101563 -0.140625,-0.21875 -0.140625,-0.34375 v -6.25 H 4.390625 v 6.25 c 0,0.125 -0.054687,0.242187 -0.15625,0.34375 C 4.140625,-0.046875 4.03125,0 3.90625,0 H 1.46875 C 1.332031,0 1.210938,-0.046875 1.109375,-0.140625 1.015625,-0.242188 0.96875,-0.359375 0.96875,-0.484375 v -15.28125 c 0,-0.132813 0.046875,-0.25 0.140625,-0.34375 C 1.210938,-16.203125 1.332031,-16.25 1.46875,-16.25 h 2.4375 c 0.125,0 0.234375,0.04687 0.328125,0.140625 0.101563,0.09375 0.15625,0.210937 0.15625,0.34375 v 5.8125 H 15.28125 v -5.8125 c 0,-0.132813 0.04687,-0.25 0.140625,-0.34375 0.101563,-0.09375 0.21875,-0.140625 0.34375,-0.140625 z m 0,0"
           id="path78" />
      </g>
    </g>
    <text
       xml:space="preserve"
       style="font-weight:bold;font-size:11.0047px;font-family:Noteworthy;-inkscape-font-specification:'Noteworthy, Bold';text-align:start;writing-mode:lr-tb;direction:ltr;text-anchor:start;opacity:1;fill:#ffffff;fill-opacity:1;stroke:#0e2c52;stroke-width:0.12651;stroke-linecap:square;stroke-linejoin:bevel;stroke-miterlimit:4.9;stroke-dasharray:none;stroke-dashoffset:0;stroke-opacity:1;paint-order:normal"
       x="102.3575"
       y="308.55362"
       id="text3380"
       transform="matrix(1.0131858,-0.3526794,0.34141159,0.86814397,0,0)"><tspan
         id="tspan3380"
         style="fill:#ffffff;fill-opacity:1;stroke:#0e2c52;stroke-width:0.12651;stroke-dasharray:none;stroke-opacity:1"
         x="102.3575"
         y="308.55362"> Code</tspan><tspan
         style="fill:#ffffff;fill-opacity:1;stroke:#0e2c52;stroke-width:0.12651;stroke-dasharray:none;stroke-opacity:1"
         x="102.3575"
         y="322.30948"
         id="tspan3381">   the </tspan><tspan
         style="fill:#ffffff;fill-opacity:1;stroke:#0e2c52;stroke-width:0.12651;stroke-dasharray:none;stroke-opacity:1"
         x="102.3575"
         y="336.0654"
         id="tspan3382">Future!</tspan></text>
  </g>
</svg>
